
<svg width="282" height="188" viewBox="0 0 282 188" fill="none" xmlns="http://www.w3.org/2000/svg">
<path d="M264.452 130.472C264.452 130.525 208.654 130.57 139.842 130.57C71.0304 130.57 15.2207 130.521 15.2207 130.472C15.2207 130.423 71.0041 130.374 139.842 130.374C208.68 130.374 264.452 130.416 264.452 130.472Z" fill="#263238"/>
<path d="M259.102 173.374C259.102 173.426 205.71 173.471 139.842 173.471C73.9746 173.471 20.5713 173.426 20.5713 173.374C20.5713 173.321 73.9633 173.276 139.842 173.276C205.721 173.276 259.102 173.336 259.102 173.374Z" fill="#263238"/>
<path d="M222.9 17.6682H67.1048C64.0792 17.6682 61.6265 20.1209 61.6265 23.1465V122.463C61.6265 125.489 64.0792 127.941 67.1048 127.941H222.9C225.926 127.941 228.379 125.489 228.379 122.463V23.1465C228.379 20.1209 225.926 17.6682 222.9 17.6682Z" fill="#E0E0E0"/>
<path d="M222.9 127.942L223.257 127.919C223.402 127.915 223.547 127.898 223.69 127.87C223.892 127.846 224.092 127.805 224.287 127.746C224.848 127.605 225.381 127.37 225.863 127.05C226.534 126.618 227.1 126.041 227.521 125.362C227.773 124.962 227.974 124.531 228.119 124.08C228.266 123.569 228.345 123.04 228.352 122.508C228.352 121.38 228.352 120.166 228.352 118.839C228.352 116.188 228.352 113.127 228.352 109.683C228.352 95.9026 228.352 75.9596 228.322 51.3203C228.322 45.1614 228.322 38.7155 228.322 31.9826V24.2859C228.375 23.4248 228.308 22.5605 228.123 21.7178C227.891 20.8763 227.458 20.1035 226.863 19.4657C226.267 18.8278 225.525 18.344 224.701 18.0556C224.494 17.9823 224.283 17.9221 224.069 17.8751C223.855 17.83 223.637 17.7999 223.419 17.7736C222.979 17.7435 222.532 17.7473 222.08 17.751H219.358H173.11H67.1232C65.9633 17.7527 64.8347 18.1276 63.9043 18.8203C62.9739 19.513 62.2912 20.4868 61.957 21.5975C61.799 22.1499 61.7229 22.7225 61.7314 23.297V42.364C61.7314 51.5209 61.7314 60.5348 61.7314 69.4059C61.7314 87.1381 61.7314 104.239 61.7314 120.542V122.046C61.7172 122.55 61.755 123.054 61.8442 123.55C62.0523 124.526 62.5244 125.426 63.2091 126.152C63.5486 126.512 63.9372 126.822 64.3634 127.073C64.5743 127.199 64.7928 127.312 65.0176 127.411C65.2454 127.504 65.479 127.582 65.717 127.645C66.6645 127.923 67.6684 127.818 68.6611 127.836H102.858H143.162L201.517 127.87L217.384 127.889L201.517 127.908L143.162 127.938H102.858H80.4035H67.1571C66.6492 127.941 66.1433 127.875 65.6531 127.742C65.4078 127.677 65.1667 127.596 64.9312 127.502C64.6991 127.397 64.4732 127.279 64.2543 127.148C63.815 126.889 63.4149 126.569 63.0662 126.197C62.7126 125.827 62.4126 125.409 62.1751 124.956C61.9395 124.499 61.7639 124.014 61.6524 123.512C61.5612 123.006 61.5222 122.492 61.5359 121.978V120.474C61.5359 104.182 61.5359 87.0817 61.5359 69.3382V23.3121C61.5251 22.7184 61.6037 22.1265 61.769 21.5562C62.1153 20.405 62.823 19.396 63.7872 18.6782C64.7515 17.9604 65.9212 17.5721 67.1232 17.5706H173.11H219.358H222.062C222.513 17.5706 222.956 17.5706 223.411 17.5969C223.637 17.6194 223.862 17.6533 224.084 17.6984C225.072 17.9203 225.981 18.4056 226.716 19.1027C227.45 19.7998 227.981 20.6827 228.254 21.6577L228.337 21.9773C228.36 22.0863 228.371 22.1954 228.39 22.3044C228.425 22.5221 228.445 22.742 228.45 22.9624C228.45 23.4023 228.45 23.8347 228.45 24.2671V26.8502C228.45 28.5648 228.45 30.2631 228.45 31.945C228.45 38.6704 228.45 45.1163 228.45 51.2827C228.45 75.922 228.423 95.865 228.416 109.645C228.416 113.09 228.416 116.15 228.416 118.801C228.416 120.128 228.416 121.354 228.416 122.471C228.408 123.008 228.327 123.542 228.175 124.058C228.031 124.517 227.827 124.955 227.57 125.362C227.145 126.046 226.572 126.625 225.893 127.058C225.408 127.375 224.873 127.608 224.31 127.746C224.113 127.803 223.912 127.843 223.708 127.866C223.564 127.893 223.419 127.906 223.272 127.908L222.9 127.942Z" fill="#263238"/>
<path d="M229.082 130.472H61.7994C60.025 130.471 58.3236 129.766 57.0693 128.511C55.815 127.255 55.1104 125.554 55.1104 123.779V120.824H235.775V123.779C235.775 125.554 235.069 127.257 233.814 128.512C232.559 129.767 230.857 130.472 229.082 130.472Z" fill="#E0E0E0"/>
<path d="M229.082 130.472H229.3C229.515 130.464 229.729 130.446 229.943 130.416L230.42 130.34L230.988 130.194C231.195 130.134 231.405 130.043 231.638 129.961C231.872 129.878 232.108 129.746 232.353 129.607C232.904 129.292 233.41 128.904 233.857 128.453C235.031 127.24 235.702 125.628 235.737 123.941C235.737 122.975 235.737 121.937 235.737 120.835L235.774 120.869L61.8105 120.933H55.1102L55.208 120.835V123.185C55.169 123.959 55.245 124.735 55.4336 125.486C55.8307 126.982 56.7427 128.289 58.0092 129.179C59.2732 130.054 60.7947 130.479 62.3294 130.386H118.981L176.404 130.408L214.974 130.438L225.438 130.457H214.974L176.404 130.487L118.981 130.51H62.3294C60.7657 130.624 59.2085 130.214 57.9039 129.344C56.6068 128.424 55.675 127.077 55.2719 125.539C55.0801 124.771 55.0016 123.979 55.0388 123.189V120.741H61.8368L235.801 120.801H235.835V120.839C235.835 121.941 235.835 122.975 235.835 123.948C235.778 125.648 235.076 127.263 233.872 128.464C233.425 128.916 232.919 129.305 232.368 129.622C232.12 129.761 231.875 129.867 231.65 129.972C231.424 130.077 231.199 130.145 230.992 130.201L230.42 130.344L229.943 130.416C229.728 130.445 229.512 130.46 229.296 130.461L229.082 130.472Z" fill="#263238"/>
<path d="M128.565 120.82L130.806 124.385H162.353L164.432 120.82H128.565Z" fill="#263238"/>
<path d="M217.332 25.2034H72.5303C70.7693 25.2034 69.3418 26.6309 69.3418 28.3919V111.687C69.3418 113.448 70.7693 114.876 72.5303 114.876H217.332C219.093 114.876 220.52 113.448 220.52 111.687V28.3919C220.52 26.6309 219.093 25.2034 217.332 25.2034Z" fill="#455A64"/>
<path d="M217.264 114.876C217.674 114.867 218.079 114.786 218.46 114.635C218.929 114.448 219.348 114.153 219.682 113.774C220.144 113.25 220.427 112.591 220.486 111.894C220.509 108.728 220.486 104.047 220.486 98.0234C220.486 85.9914 220.486 68.545 220.452 47.0077C220.452 41.6234 220.452 35.9834 220.452 30.0877V28.9973C220.469 28.6318 220.451 28.2654 220.4 27.9032C220.272 27.179 219.896 26.5221 219.336 26.0457C218.77 25.5692 218.056 25.3034 217.316 25.2937H205.694H165.259H72.6092C72.1101 25.294 71.6182 25.4119 71.1733 25.6379C70.7284 25.864 70.343 26.1918 70.0486 26.5947C69.7528 26.9958 69.5592 27.463 69.4846 27.9558C69.4396 28.4558 69.4246 28.958 69.4395 29.4598V71.3161C69.4395 79.0667 69.4395 86.6732 69.4395 94.1356V105.197C69.4395 107.017 69.4395 108.833 69.4395 110.634C69.4395 111.082 69.4395 111.544 69.462 111.973C69.5349 112.626 69.8094 113.24 70.2474 113.73C70.6854 114.22 71.2651 114.561 71.906 114.707C72.3378 114.782 72.7768 114.809 73.2145 114.785H112.319H147.55L198.565 114.816L212.436 114.834L198.565 114.853L147.55 114.883H112.319H73.2145C72.764 114.907 72.3123 114.878 71.8684 114.797C71.1911 114.643 70.5783 114.282 70.1148 113.765C69.6514 113.248 69.3602 112.599 69.2815 111.909C69.2402 111.443 69.2815 111.003 69.259 110.552V105.197C69.259 101.55 69.259 97.863 69.259 94.1356V71.3161C69.259 63.568 69.259 55.6883 69.259 47.677V29.4786C69.2424 28.963 69.2574 28.4469 69.3041 27.9332C69.3841 27.409 69.5905 26.9121 69.9057 26.4856C70.2178 26.0574 70.6268 25.7092 71.0993 25.4694C71.5718 25.2295 72.0943 25.1049 72.6242 25.1057H165.274H205.709H217.328C218.102 25.1165 218.849 25.3968 219.439 25.8985C220.029 26.4001 220.426 27.0917 220.561 27.8543C220.613 28.2279 220.63 28.6055 220.614 28.9823V30.0877C220.614 35.9633 220.614 41.6033 220.614 47.0077C220.614 68.545 220.591 85.9764 220.584 98.0234C220.584 104.039 220.584 108.724 220.55 111.898C220.497 112.503 220.277 113.081 219.914 113.568C219.55 114.055 219.059 114.431 218.493 114.654C218.206 114.766 217.905 114.837 217.598 114.864L217.264 114.876Z" fill="#263238"/>
<path d="M125.396 47.3985V48.2596H121.824V43.616H125.328V44.477H122.892V45.496H125.042V46.3307H122.892V47.4023L125.396 47.3985Z" fill="white"/>
<path d="M129.817 46.2217V48.2597H128.783V46.3797C128.783 45.8044 128.52 45.5374 128.061 45.5374C127.603 45.5374 127.208 45.842 127.208 46.4962V48.2597H126.178V44.6989H127.163V45.1201C127.315 44.9638 127.499 44.8412 127.701 44.7602C127.904 44.6793 128.122 44.6417 128.34 44.6501C129.182 44.6425 129.817 45.1201 129.817 46.2217Z" fill="white"/>
<path d="M133.048 48.0868C132.798 48.2456 132.505 48.3243 132.209 48.3124C131.367 48.3124 130.878 47.8837 130.878 47.034V45.5713H130.329V44.778H130.878V43.9094H131.908V44.778H132.796V45.5713H131.908V47.0227C131.9 47.0844 131.906 47.1471 131.925 47.2062C131.945 47.2653 131.977 47.3194 132.02 47.3645C132.063 47.4095 132.115 47.4444 132.173 47.4666C132.231 47.4888 132.294 47.4977 132.356 47.4927C132.505 47.4935 132.65 47.446 132.769 47.3573L133.048 48.0868Z" fill="white"/>
<path d="M136.988 46.7707H134.296C134.351 46.9927 134.485 47.1873 134.672 47.3186C134.859 47.45 135.088 47.5091 135.315 47.4851C135.479 47.4916 135.643 47.4643 135.797 47.4048C135.95 47.3453 136.089 47.2549 136.206 47.1392L136.759 47.737C136.57 47.9338 136.341 48.0871 136.087 48.1865C135.833 48.2858 135.561 48.3288 135.289 48.3123C134.055 48.3123 133.255 47.5378 133.255 46.4774C133.252 46.2303 133.299 45.9851 133.395 45.757C133.49 45.5289 133.631 45.3226 133.808 45.1508C133.986 44.979 134.197 44.8453 134.428 44.7579C134.66 44.6705 134.906 44.6313 135.153 44.6426C135.4 44.6296 135.646 44.6686 135.877 44.7569C136.107 44.8452 136.317 44.981 136.491 45.1554C136.666 45.3297 136.802 45.5389 136.891 45.7692C136.98 45.9995 137.019 46.2459 137.007 46.4925C137.007 46.5714 136.996 46.6842 136.988 46.7707ZM134.281 46.1654H136.037C136.012 45.9531 135.908 45.758 135.745 45.6188C135.583 45.4795 135.375 45.4062 135.161 45.4134C134.946 45.4025 134.735 45.4744 134.571 45.6143C134.408 45.7541 134.304 45.9513 134.281 46.1654Z" fill="white"/>
<path d="M139.91 44.6426V45.5976C139.823 45.5976 139.755 45.5976 139.676 45.5976C139.545 45.5856 139.413 45.6034 139.289 45.6497C139.166 45.6961 139.054 45.7697 138.963 45.8651C138.872 45.9606 138.804 46.0754 138.763 46.2009C138.723 46.3265 138.711 46.4596 138.729 46.5902V48.271H137.699V44.7102H138.684V45.1802C138.829 44.9979 139.017 44.8536 139.23 44.7599C139.444 44.6662 139.677 44.6259 139.91 44.6426Z" fill="white"/>
<path d="M144.722 46.624V48.2671H143.65V46.624L141.857 43.616H142.985L144.226 45.6764L145.463 43.616H146.516L144.722 46.624Z" fill="white"/>
<path d="M146.238 46.4775C146.212 46.0849 146.305 45.6936 146.504 45.3545C146.704 45.0154 147.001 44.744 147.356 44.5757C147.712 44.4073 148.11 44.3498 148.499 44.4104C148.888 44.4711 149.249 44.6472 149.536 44.9159C149.824 45.1846 150.024 45.5335 150.111 45.9173C150.197 46.3011 150.167 46.7021 150.023 47.0682C149.879 47.4344 149.628 47.7488 149.303 47.9706C148.978 48.1925 148.594 48.3116 148.2 48.3124C147.949 48.33 147.696 48.2955 147.459 48.2112C147.221 48.1269 147.004 47.9945 146.819 47.8224C146.635 47.6502 146.489 47.4419 146.388 47.2105C146.288 46.9792 146.237 46.7296 146.238 46.4775ZM149.106 46.4775C149.092 46.3004 149.026 46.1315 148.917 45.9913C148.807 45.8511 148.66 45.7458 148.492 45.6883C148.324 45.6307 148.142 45.6235 147.97 45.6674C147.798 45.7113 147.642 45.8044 147.522 45.9355C147.402 46.0665 147.323 46.2296 147.294 46.405C147.265 46.5803 147.289 46.7603 147.36 46.9227C147.432 47.0852 147.55 47.2232 147.699 47.3197C147.849 47.4163 148.023 47.4673 148.2 47.4664C148.327 47.4681 148.452 47.443 148.569 47.3928C148.685 47.3426 148.789 47.2683 148.875 47.175C148.96 47.0816 149.025 46.9712 149.065 46.851C149.105 46.7308 149.119 46.6035 149.106 46.4775Z" fill="white"/>
<path d="M154.43 44.699V48.2597H153.449V47.8348C153.31 47.9895 153.139 48.1122 152.949 48.1947C152.758 48.2771 152.551 48.3172 152.344 48.3123C151.449 48.3123 150.821 47.8085 150.821 46.7106V44.699H151.855V46.5564C151.855 47.1543 152.118 47.4175 152.577 47.4175C153.035 47.4175 153.396 47.1129 153.396 46.4587V44.699H154.43Z" fill="white"/>
<path d="M157.601 44.6426V45.5976C157.514 45.5976 157.45 45.5976 157.371 45.5976C157.24 45.5849 157.107 45.6022 156.983 45.6482C156.859 45.6943 156.747 45.7679 156.656 45.8635C156.565 45.9592 156.496 46.0743 156.456 46.2001C156.416 46.326 156.405 46.4594 156.424 46.5902V48.271H155.39V44.7102H156.375V45.1802C156.52 44.9979 156.708 44.8536 156.921 44.7599C157.135 44.6662 157.368 44.6259 157.601 44.6426Z" fill="white"/>
<path d="M159.897 45.9436C159.897 44.5636 160.969 43.5447 162.435 43.5447C163.902 43.5447 164.97 44.5599 164.97 45.9436C164.97 47.3272 163.891 48.3387 162.435 48.3387C160.98 48.3387 159.897 47.3197 159.897 45.9436ZM163.883 45.9436C163.877 45.6577 163.787 45.38 163.624 45.1452C163.461 44.9104 163.232 44.7291 162.966 44.624C162.7 44.5188 162.409 44.4946 162.129 44.5542C161.85 44.6139 161.594 44.7548 161.394 44.9593C161.194 45.1638 161.059 45.4228 161.006 45.7037C160.953 45.9846 160.984 46.275 161.095 46.5384C161.206 46.8018 161.393 47.0264 161.631 47.1842C161.87 47.3419 162.15 47.4257 162.435 47.425C162.63 47.4299 162.823 47.3946 163.003 47.3215C163.183 47.2483 163.346 47.1388 163.482 46.9997C163.618 46.8607 163.724 46.6952 163.793 46.5134C163.862 46.3317 163.892 46.1377 163.883 45.9436Z" fill="white"/>
<path d="M166.673 44.4996H165.188V43.616H169.226V44.492H167.745V48.252H166.673V44.4996Z" fill="white"/>
<path d="M173.825 45.308C173.825 46.3382 173.05 46.9812 171.809 46.9812H170.877V48.2596H169.805V43.616H171.809C173.05 43.616 173.825 44.2664 173.825 45.308ZM172.738 45.308C172.738 44.7966 172.407 44.4996 171.749 44.4996H170.877V46.1088H171.749C172.407 46.1088 172.738 45.808 172.738 45.308Z" fill="white"/>
<g opacity="0.2">
<path d="M114.214 57.8213H106.562C105.426 57.8213 104.505 58.7421 104.505 59.878V71.7935C104.505 72.9293 105.426 73.8502 106.562 73.8502H114.214C115.35 73.8502 116.27 72.9293 116.27 71.7935V59.878C116.27 58.7421 115.35 57.8213 114.214 57.8213Z" fill="white"/>
</g>
<g opacity="0.2">
<path d="M129.017 57.8213H121.365C120.229 57.8213 119.309 58.7421 119.309 59.878V71.7935C119.309 72.9293 120.229 73.8502 121.365 73.8502H129.017C130.153 73.8502 131.074 72.9293 131.074 71.7935V59.878C131.074 58.7421 130.153 57.8213 129.017 57.8213Z" fill="white"/>
</g>
<g opacity="0.2">
<path d="M143.824 57.8213H136.172C135.036 57.8213 134.115 58.7421 134.115 59.878V71.7935C134.115 72.9293 135.036 73.8502 136.172 73.8502H143.824C144.959 73.8502 145.88 72.9293 145.88 71.7935V59.878C145.88 58.7421 144.959 57.8213 143.824 57.8213Z" fill="white"/>
</g>
<g opacity="0.2">
<path d="M158.627 57.8213H150.975C149.839 57.8213 148.918 58.7421 148.918 59.878V71.7935C148.918 72.9293 149.839 73.8502 150.975 73.8502H158.627C159.763 73.8502 160.684 72.9293 160.684 71.7935V59.878C160.684 58.7421 159.763 57.8213 158.627 57.8213Z" fill="white"/>
</g>
<g opacity="0.2">
<path d="M173.43 57.8213H165.778C164.643 57.8213 163.722 58.7421 163.722 59.878V71.7935C163.722 72.9293 164.643 73.8502 165.778 73.8502H173.43C174.566 73.8502 175.487 72.9293 175.487 71.7935V59.878C175.487 58.7421 174.566 57.8213 173.43 57.8213Z" fill="white"/>
</g>
<g opacity="0.2">
<path d="M188.233 57.8213H180.582C179.446 57.8213 178.525 58.7421 178.525 59.878V71.7935C178.525 72.9293 179.446 73.8502 180.582 73.8502H188.233C189.369 73.8502 190.29 72.9293 190.29 71.7935V59.878C190.29 58.7421 189.369 57.8213 188.233 57.8213Z" fill="white"/>
</g>
<path d="M111.615 65.9015L113.025 66.6535L112.394 67.7138L110.972 66.8716L110.995 68.4358H109.792V66.8603L108.37 67.7138L107.75 66.6535L109.156 65.9015L107.75 65.127L108.37 64.0666L109.792 64.9202V63.3447H111.006L110.984 64.9202L112.405 64.0666L113.037 65.127L111.615 65.9015Z" fill="#263238"/>
<path d="M161.014 83.6902H133.785C131.079 83.6902 128.885 85.8837 128.885 88.5895V89.5859C128.885 92.2917 131.079 94.4851 133.785 94.4851H161.014C163.72 94.4851 165.914 92.2917 165.914 89.5859V88.5895C165.914 85.8837 163.72 83.6902 161.014 83.6902Z" fill="#18432D"/>
<path d="M137.052 88.8337C137.072 88.5062 137.188 88.1918 137.385 87.9294C137.582 87.6671 137.852 87.4684 138.161 87.3579C138.47 87.2474 138.805 87.23 139.123 87.3079C139.442 87.3858 139.731 87.5555 139.954 87.796L139.503 88.2133C139.411 88.103 139.296 88.0142 139.167 87.9531C139.037 87.892 138.895 87.8602 138.751 87.8599C138.493 87.8599 138.245 87.9625 138.063 88.1451C137.88 88.3277 137.777 88.5754 137.777 88.8337C137.777 89.092 137.88 89.3397 138.063 89.5223C138.245 89.705 138.493 89.8076 138.751 89.8076C138.897 89.8048 139.04 89.7696 139.17 89.7045C139.3 89.6395 139.414 89.5462 139.503 89.4316L139.954 89.8489C139.732 90.0908 139.444 90.262 139.125 90.3412C138.807 90.4204 138.472 90.4041 138.162 90.2942C137.853 90.1844 137.582 89.9859 137.385 89.7235C137.188 89.4612 137.072 89.1465 137.052 88.8187V88.8337Z" fill="white"/>
<path d="M140.124 89.1834C140.107 88.9255 140.168 88.6685 140.3 88.4458C140.431 88.2231 140.626 88.045 140.86 87.9346C141.094 87.8242 141.355 87.7866 141.61 87.8266C141.866 87.8666 142.103 87.9825 142.292 88.1591C142.481 88.3357 142.612 88.565 142.669 88.8171C142.726 89.0693 142.705 89.3327 142.611 89.5732C142.516 89.8137 142.351 90.0202 142.138 90.166C141.924 90.3117 141.672 90.3899 141.413 90.3904C141.248 90.4017 141.082 90.3789 140.926 90.3234C140.77 90.2678 140.627 90.1807 140.506 90.0675C140.385 89.9543 140.289 89.8174 140.223 89.6653C140.157 89.5132 140.123 89.3491 140.124 89.1834ZM142.004 89.1834C141.994 89.0667 141.951 88.9553 141.879 88.8628C141.807 88.7704 141.71 88.701 141.599 88.6631C141.488 88.6252 141.368 88.6205 141.255 88.6495C141.141 88.6786 141.039 88.7401 140.96 88.8266C140.881 88.9131 140.829 89.0208 140.81 89.1364C140.792 89.2521 140.807 89.3707 140.855 89.4776C140.903 89.5846 140.981 89.6753 141.079 89.7386C141.178 89.8018 141.293 89.835 141.41 89.8339C141.493 89.8354 141.576 89.8192 141.653 89.7863C141.73 89.7534 141.798 89.7046 141.855 89.6432C141.911 89.5817 141.954 89.5089 141.981 89.4297C142.007 89.3504 142.016 89.2665 142.008 89.1834H142.004Z" fill="white"/>
<path d="M145.538 89.0143V90.3528H144.862V89.112C144.862 88.736 144.685 88.5593 144.388 88.5593C144.091 88.5593 143.824 88.7586 143.824 89.191V90.3453H143.147V88.0066H143.794V88.2811C143.894 88.1787 144.015 88.0985 144.149 88.0454C144.282 87.9923 144.425 87.9676 144.568 87.9728C144.704 87.9636 144.841 87.9849 144.967 88.0351C145.094 88.0853 145.208 88.1631 145.301 88.2628C145.394 88.3626 145.463 88.4818 145.504 88.6118C145.545 88.7418 145.557 88.8793 145.538 89.0143Z" fill="white"/>
<path d="M147.659 90.2401C147.494 90.3456 147.302 90.3981 147.106 90.3905C146.991 90.4065 146.873 90.3959 146.762 90.3597C146.651 90.3235 146.549 90.2626 146.465 90.1814C146.381 90.1003 146.317 90.0012 146.277 89.8915C146.237 89.7818 146.222 89.6644 146.234 89.5482V88.5894H145.858V88.0668H146.234V87.499H146.911V88.0668H147.494V88.5894H146.911V89.5407C146.906 89.5811 146.909 89.6222 146.922 89.6609C146.935 89.6996 146.956 89.735 146.984 89.7645C147.012 89.794 147.046 89.8169 147.085 89.8316C147.123 89.8462 147.163 89.8521 147.204 89.849C147.302 89.8499 147.398 89.8196 147.478 89.7625L147.659 90.2401Z" fill="white"/>
<path d="M147.959 87.3111C147.959 87.2577 147.97 87.2048 147.992 87.156C148.013 87.1071 148.045 87.0635 148.085 87.0279C148.125 86.9923 148.172 86.9656 148.223 86.9496C148.274 86.9336 148.328 86.9287 148.381 86.9351C148.434 86.9287 148.487 86.9336 148.538 86.9496C148.589 86.9656 148.636 86.9923 148.676 87.0279C148.716 87.0635 148.748 87.1071 148.769 87.156C148.791 87.2048 148.802 87.2577 148.802 87.3111C148.788 87.4131 148.738 87.5067 148.66 87.5744C148.583 87.6422 148.484 87.6796 148.381 87.6796C148.278 87.6796 148.178 87.6422 148.101 87.5744C148.023 87.5067 147.973 87.4131 147.959 87.3111ZM148.042 88.0142H148.719V90.3529H148.042V88.0142Z" fill="white"/>
<path d="M151.742 89.0144V90.3529H151.066V89.1121C151.066 88.7361 150.889 88.5594 150.592 88.5594C150.295 88.5594 150.028 88.7587 150.028 89.1911V90.3454H149.351V88.0067H149.998V88.2812C150.1 88.1804 150.222 88.1019 150.356 88.0508C150.49 87.9997 150.633 87.977 150.776 87.9841C150.911 87.9759 151.046 87.9974 151.171 88.0472C151.296 88.097 151.409 88.1738 151.501 88.2722C151.594 88.3706 151.663 88.4881 151.705 88.6164C151.746 88.7447 151.759 88.8806 151.742 89.0144Z" fill="white"/>
<path d="M154.712 88.0142V90.3529H154.069V90.0746C153.979 90.1767 153.867 90.2578 153.741 90.3123C153.616 90.3668 153.48 90.3935 153.344 90.3905C153.205 90.4018 153.065 90.3819 152.935 90.3322C152.805 90.2825 152.688 90.2043 152.592 90.1033C152.496 90.0024 152.424 89.8812 152.381 89.7487C152.338 89.6162 152.325 89.4757 152.344 89.3377V88.0142H153.032V89.2362C153.032 89.6122 153.205 89.8039 153.505 89.8039C153.806 89.8039 154.047 89.6009 154.047 89.1722V88.0142H154.712Z" fill="white"/>
<path d="M157.623 89.3753H155.852C155.888 89.5214 155.975 89.6497 156.098 89.7362C156.221 89.8226 156.372 89.8614 156.521 89.8453C156.629 89.8491 156.737 89.8312 156.838 89.7924C156.938 89.7536 157.03 89.6949 157.108 89.6197L157.484 89.9957C157.3 90.1717 157.072 90.2931 156.823 90.3461C156.574 90.399 156.316 90.3816 156.077 90.2956C155.837 90.2096 155.627 90.0585 155.469 89.8594C155.311 89.6602 155.212 89.4209 155.183 89.1685C155.184 89.009 155.216 88.8514 155.279 88.7049C155.342 88.5584 155.434 88.426 155.549 88.3156C155.664 88.2052 155.8 88.1189 155.949 88.062C156.098 88.005 156.257 87.9785 156.416 87.9841C156.578 87.9754 156.74 88.0009 156.891 88.0588C157.043 88.1168 157.18 88.2059 157.295 88.3203C157.41 88.4348 157.499 88.5722 157.558 88.7234C157.616 88.8747 157.642 89.0366 157.634 89.1985C157.634 89.2474 157.627 89.3189 157.623 89.3753ZM155.844 88.9993H156.995C156.978 88.8604 156.909 88.733 156.803 88.6424C156.696 88.5518 156.559 88.5047 156.42 88.5105C156.282 88.5025 156.147 88.5463 156.04 88.6334C155.934 88.7204 155.864 88.8443 155.844 88.9805V88.9993Z" fill="white"/>
<path d="M148.324 21.4698C148.324 21.7986 148.227 22.1201 148.044 22.3935C147.861 22.6669 147.601 22.8799 147.298 23.0056C146.994 23.1312 146.659 23.1639 146.337 23.0995C146.014 23.0351 145.718 22.8764 145.486 22.6436C145.254 22.4108 145.096 22.1143 145.032 21.7917C144.968 21.4691 145.002 21.1348 145.128 20.8312C145.254 20.5276 145.468 20.2683 145.742 20.0861C146.016 19.904 146.337 19.8071 146.666 19.8079C146.884 19.8079 147.1 19.8509 147.302 19.9344C147.503 20.018 147.686 20.1405 147.84 20.2949C147.994 20.4492 148.116 20.6325 148.199 20.8341C148.282 21.0357 148.325 21.2517 148.324 21.4698Z" fill="#263238"/>
<path d="M209.315 30.6215V29.0272C209.313 28.9842 209.32 28.9413 209.334 28.9008C209.349 28.8604 209.371 28.8232 209.4 28.7914C209.429 28.7596 209.464 28.7339 209.503 28.7156C209.542 28.6974 209.584 28.687 209.627 28.6851H212.023C212.065 28.687 212.108 28.6974 212.147 28.7156C212.186 28.7339 212.221 28.7596 212.25 28.7914C212.279 28.8232 212.301 28.8604 212.316 28.9008C212.33 28.9413 212.337 28.9842 212.335 29.0272V30.6215C212.337 30.6644 212.33 30.7074 212.316 30.7478C212.301 30.7883 212.279 30.8255 212.25 30.8573C212.221 30.8891 212.186 30.9148 212.147 30.9331C212.108 30.9513 212.065 30.9617 212.023 30.9636H209.627C209.584 30.9617 209.542 30.9513 209.503 30.9331C209.464 30.9148 209.429 30.8891 209.4 30.8573C209.371 30.8255 209.349 30.7883 209.334 30.7478C209.32 30.7074 209.313 30.6644 209.315 30.6215Z" fill="#263238"/>
<path d="M213.857 31.5051H209.127C209.015 31.5042 208.908 31.459 208.829 31.3794C208.75 31.2998 208.706 31.1923 208.706 31.0803V28.4746C208.706 28.4193 208.717 28.3645 208.738 28.3134C208.759 28.2623 208.79 28.2159 208.829 28.1768C208.868 28.1377 208.915 28.1067 208.966 28.0855C209.017 28.0644 209.072 28.0535 209.127 28.0535H213.79C213.889 28.0535 213.985 28.0931 214.055 28.1636C214.126 28.2341 214.166 28.3297 214.166 28.4295V28.9107C214.166 28.9267 214.172 28.942 214.183 28.9533C214.194 28.9646 214.21 28.9709 214.226 28.9709H214.737C214.804 28.9709 214.868 28.9974 214.915 29.0447C214.962 29.0919 214.989 29.156 214.989 29.2228V30.0801C214.989 30.1629 214.956 30.2423 214.898 30.3008C214.839 30.3593 214.76 30.3922 214.677 30.3922H214.301C214.284 30.3922 214.268 30.3989 214.256 30.4109C214.244 30.4229 214.237 30.4392 214.237 30.4561V31.1216C214.238 31.1719 214.229 31.222 214.21 31.2687C214.192 31.3154 214.164 31.358 214.128 31.3937C214.093 31.4295 214.051 31.4578 214.004 31.4769C213.958 31.4961 213.908 31.5057 213.857 31.5051ZM209.127 28.2415C209.065 28.2415 209.006 28.266 208.962 28.3097C208.919 28.3535 208.894 28.4128 208.894 28.4746V31.0803C208.894 31.1424 208.918 31.2021 208.962 31.2465C209.006 31.2908 209.065 31.3162 209.127 31.3171H213.857C213.909 31.3162 213.959 31.2947 213.996 31.2575C214.032 31.2202 214.053 31.1701 214.053 31.1179V30.4561C214.053 30.3893 214.079 30.3252 214.127 30.278C214.174 30.2307 214.238 30.2042 214.305 30.2042H214.681C214.714 30.2042 214.745 30.1911 214.768 30.1678C214.792 30.1446 214.805 30.113 214.805 30.0801V29.2303C214.804 29.2137 214.797 29.1979 214.785 29.1862C214.773 29.1744 214.758 29.1673 214.741 29.1664H214.229C214.164 29.1655 214.101 29.139 214.055 29.0927C214.009 29.0463 213.982 28.9838 213.981 28.9183V28.437C213.981 28.411 213.976 28.3853 213.966 28.3613C213.956 28.3373 213.941 28.3156 213.923 28.2974C213.904 28.2792 213.882 28.2649 213.858 28.2553C213.834 28.2457 213.808 28.241 213.782 28.2415H209.127Z" fill="#263238"/>
<path d="M64.9239 75.8806C64.7213 75.275 64.3396 74.7452 63.8294 74.3612C63.3191 73.9771 62.7043 73.757 62.0663 73.7299C62.3972 72.8012 61.7618 71.7296 60.8594 71.3385C60.3964 71.1711 59.9033 71.103 59.4123 71.1386C58.9213 71.1742 58.4432 71.3128 58.0093 71.5453C57.3814 71.8424 56.7948 72.256 56.1293 72.4101C55.2382 72.6132 54.317 72.3312 53.407 72.3011C52.4732 72.2833 51.5525 72.5226 50.7455 72.9928C49.9385 73.4629 49.2762 74.1458 48.8311 74.9669C48.5266 75.5422 48.3386 76.1777 48.0039 76.7379C47.7332 77.1853 47.3798 77.5764 47.1128 78.0276C46.7401 78.6881 46.5705 79.4439 46.6253 80.2004C46.6802 80.9568 46.957 81.6803 47.4211 82.2801L60.239 79.3361C60.7658 79.7004 61.3932 79.8912 62.0337 79.8818C62.6742 79.8724 63.2957 79.6633 63.8116 79.2836C64.3275 78.9039 64.712 78.3727 64.9114 77.764C65.1108 77.1552 65.1152 76.4995 64.9239 75.8881V75.8806Z" fill="#263238"/>
<path d="M94.451 123.076L82.0918 121.85L81.3774 128.269L95.3346 127.784L94.451 123.076Z" fill="#FFBF9D"/>
<path d="M103.84 126.836C103.761 126.947 103.652 127.033 103.525 127.083C103.397 127.132 103.259 127.143 103.126 127.114C103.068 127.099 103.013 127.078 102.96 127.05C102.584 126.866 102.753 126.08 102.753 126.08L100.941 125.486C100.941 125.486 98.2789 126.659 97.2562 127.558C96.2334 128.457 94.173 127.272 94.173 127.272L94.0376 123.189L97.948 120.636C97.948 120.636 97.7074 120.79 98.0345 120.26C98.3616 119.73 99.4031 120.106 99.4031 120.106C99.6174 119.846 100.336 119.854 100.336 119.854L103.28 120.673C103.58 120.757 103.857 120.906 104.091 121.111C104.326 121.316 104.511 121.572 104.633 121.858L105.585 124.065C105.585 124.065 106.028 125.618 105.867 125.945C105.798 126.076 105.684 126.178 105.545 126.231C105.406 126.284 105.253 126.283 105.115 126.231C105.115 126.231 104.814 127.156 104.562 127.152C104.307 127.098 104.065 126.998 103.847 126.855L103.84 126.836Z" fill="#FFBF9D"/>
<path d="M98.0115 127.024C98.0823 126.994 98.1503 126.958 98.2145 126.915L98.7785 126.592C99.4867 126.199 100.217 125.849 100.967 125.543H100.922L102.73 126.152L102.678 126.062C102.65 126.214 102.637 126.369 102.64 126.524C102.638 126.693 102.687 126.86 102.779 127.002C102.839 127.074 102.919 127.128 103.009 127.156C103.09 127.192 103.179 127.211 103.268 127.212C103.452 127.212 103.631 127.147 103.772 127.028C103.807 126.998 103.84 126.965 103.87 126.93L103.892 126.904L103.776 126.926L103.832 126.96C103.905 127.006 103.98 127.047 104.058 127.084C104.136 127.124 104.218 127.158 104.302 127.186C104.346 127.203 104.391 127.215 104.437 127.223C104.495 127.24 104.556 127.24 104.614 127.223C104.706 127.172 104.783 127.097 104.836 127.005C104.885 126.928 104.929 126.848 104.967 126.765C105.045 126.6 105.113 126.43 105.171 126.257L105.05 126.313C105.172 126.361 105.304 126.375 105.432 126.353C105.561 126.331 105.681 126.275 105.78 126.189C105.882 126.097 105.948 125.972 105.968 125.836C105.981 125.711 105.981 125.585 105.968 125.46C105.901 124.981 105.801 124.507 105.667 124.042L105.159 122.866L104.84 122.114C104.741 121.856 104.615 121.61 104.464 121.38C104.303 121.157 104.098 120.969 103.862 120.828C103.627 120.697 103.373 120.604 103.11 120.549L100.331 119.797H100.309C100.136 119.799 99.9635 119.817 99.7937 119.85C99.6124 119.874 99.4437 119.956 99.3124 120.083H99.4215C99.28 119.989 99.1177 119.931 98.9486 119.914C98.7795 119.897 98.6088 119.921 98.4514 119.985C98.1715 120.128 97.9575 120.373 97.8535 120.67L97.8836 120.632L95.1877 122.38L94.462 122.866C94.375 122.92 94.2921 122.98 94.2139 123.046C94.3087 123.006 94.3993 122.957 94.4846 122.899L95.2366 122.448L97.9626 120.756V120.734C98.0556 120.477 98.2423 120.265 98.4852 120.14C98.6194 120.088 98.7639 120.07 98.9065 120.086C99.0492 120.103 99.1858 120.153 99.3049 120.234L99.3651 120.271L99.4139 120.218C99.5195 120.125 99.6503 120.065 99.7899 120.046C99.9473 120.015 100.107 120 100.267 120L103.039 120.782C103.282 120.834 103.517 120.921 103.734 121.042C103.947 121.171 104.132 121.343 104.276 121.546C104.417 121.764 104.533 121.997 104.622 122.241C104.731 122.49 104.836 122.738 104.945 122.993L105.453 124.17C105.584 124.625 105.684 125.089 105.75 125.558C105.761 125.666 105.761 125.776 105.75 125.885C105.736 125.977 105.691 126.063 105.622 126.125C105.548 126.187 105.46 126.228 105.365 126.244C105.271 126.26 105.174 126.25 105.084 126.216L104.994 126.186L104.964 126.272C104.912 126.438 104.847 126.6 104.772 126.757C104.719 126.902 104.632 127.031 104.516 127.133C104.49 127.136 104.464 127.136 104.437 127.133L104.328 127.103C104.253 127.077 104.178 127.043 104.103 127.009C104.029 126.974 103.958 126.935 103.888 126.892L103.836 126.862L103.719 126.885V126.908C103.695 126.934 103.668 126.96 103.64 126.983C103.535 127.073 103.403 127.125 103.264 127.129C103.194 127.129 103.125 127.115 103.061 127.088C102.998 127.073 102.943 127.037 102.903 126.986C102.779 126.737 102.75 126.451 102.821 126.182V126.11L102.757 126.092L100.944 125.505H100.922H100.899C100.151 125.824 99.4246 126.194 98.7259 126.61C98.4815 126.757 98.2972 126.877 98.1731 126.964C98.1179 126.98 98.0639 127 98.0115 127.024Z" fill="#FF9A6C"/>
<path d="M99.7451 121.234C100.03 121.42 100.339 121.566 100.663 121.67C101.45 121.966 102.273 122.158 103.11 122.241L103.02 122.159C103.05 122.317 103.076 122.478 103.118 122.644C103.331 123.577 103.722 124.46 104.268 125.246C104.433 125.481 104.614 125.705 104.81 125.915C104.949 126.065 105.035 126.137 105.047 126.129C105.058 126.122 104.768 125.772 104.385 125.167C103.886 124.377 103.524 123.509 103.313 122.599C103.276 122.441 103.246 122.279 103.219 122.129V122.05H103.144C102.322 121.969 101.51 121.802 100.723 121.549C100.403 121.425 100.077 121.32 99.7451 121.234Z" fill="#FF9A6C"/>
<path d="M102.317 123.43C102.403 124.691 102.974 125.87 103.911 126.72C103.96 126.678 103.411 126.054 102.975 125.144C102.539 124.234 102.377 123.418 102.317 123.43Z" fill="#FF9A6C"/>
<path d="M93.7705 125.96C93.7705 125.96 93.7968 125.99 93.857 126.031C93.9464 126.091 94.0393 126.145 94.1352 126.193C94.4995 126.371 94.8933 126.48 95.2971 126.516C95.9172 126.573 96.5406 126.451 97.0944 126.167C97.8007 125.805 98.36 125.21 98.6773 124.482L98.557 124.539C99.2504 124.788 99.9759 124.938 100.711 124.982C100.984 124.997 101.258 124.997 101.531 124.982C101.805 124.983 102.077 124.939 102.336 124.851C102.481 124.802 102.603 124.702 102.678 124.569C102.71 124.5 102.728 124.426 102.731 124.351C102.734 124.275 102.723 124.2 102.697 124.129C102.643 123.988 102.537 123.875 102.4 123.813L102.069 123.67C101.193 123.294 100.384 123.02 99.7038 122.798C99.0232 122.576 98.4592 122.422 98.0719 122.324C97.8726 122.261 97.6672 122.22 97.4591 122.2C97.6516 122.278 97.8488 122.345 98.0494 122.399C98.4254 122.52 98.9819 122.696 99.6587 122.933C100.335 123.17 101.129 123.471 101.997 123.843L102.325 123.986C102.413 124.027 102.482 124.102 102.516 124.193C102.535 124.239 102.545 124.288 102.545 124.338C102.545 124.387 102.535 124.436 102.516 124.482C102.461 124.573 102.374 124.64 102.272 124.67C102.029 124.749 101.775 124.787 101.52 124.783C101.257 124.783 100.99 124.783 100.719 124.783C100.002 124.739 99.2943 124.595 98.6171 124.354L98.5307 124.324L98.4968 124.407C98.1949 125.102 97.6641 125.673 96.9928 126.024C96.4673 126.302 95.8759 126.432 95.282 126.4C94.8941 126.375 94.513 126.286 94.154 126.137C93.9059 126.039 93.778 125.96 93.7705 125.96Z" fill="#FF9A6C"/>
<path d="M54.362 107.194C52.8954 107.161 51.5 106.555 50.4751 105.506C49.4503 104.456 48.8776 103.047 48.8799 101.58L48.6468 82.9643C48.4287 77.9673 51.0757 73.6696 55.9374 73.5869H56.3886C60.9194 73.7787 64.544 77.5123 64.7208 82.171C64.8862 86.5063 65.0629 90.6912 64.9426 93.0073C64.6907 97.8051 59.9493 98.2713 59.9493 98.2713C59.9493 98.2713 59.9493 100.057 59.9493 101.467C59.9618 102.209 59.8269 102.946 59.5527 103.635C59.2784 104.324 58.8701 104.952 58.3515 105.482C57.8328 106.012 57.2142 106.434 56.5313 106.723C55.8484 107.013 55.1149 107.164 54.3732 107.167L54.362 107.194Z" fill="#FFBF9D"/>
<path d="M59.9493 98.3278C57.7871 98.229 55.7016 97.4968 53.9521 96.2222C53.9521 96.2222 55.2681 99.8919 59.9381 99.6551L59.9493 98.3278Z" fill="#FF9A6C"/>
<path d="M63.0021 86.4537C62.9973 86.6293 62.9252 86.7964 62.8006 86.9203C62.676 87.0442 62.5085 87.1154 62.3329 87.1192C62.2467 87.1222 62.1608 87.108 62.0802 87.0773C61.9996 87.0466 61.9259 87.0001 61.8636 86.9406C61.8012 86.881 61.7514 86.8096 61.7171 86.7305C61.6827 86.6514 61.6645 86.5662 61.6636 86.48C61.6655 86.3035 61.7368 86.1348 61.862 86.0103C61.9872 85.8858 62.1563 85.8155 62.3329 85.8145C62.4189 85.812 62.5046 85.8266 62.585 85.8575C62.6653 85.8883 62.7388 85.9348 62.801 85.9943C62.8633 86.0537 62.9131 86.125 62.9476 86.2038C62.9822 86.2827 63.0007 86.3676 63.0021 86.4537Z" fill="#263238"/>
<path d="M63.6452 84.2653C63.5587 84.3518 63.0699 83.9457 62.3517 83.9194C61.6336 83.8931 61.0959 84.2352 61.0207 84.1412C60.9455 84.0472 61.0771 83.942 61.3102 83.7652C61.6282 83.5588 62.0031 83.4575 62.3818 83.4757C62.7546 83.4862 63.1137 83.6183 63.4045 83.8517C63.6189 84.0623 63.6865 84.224 63.6452 84.2653Z" fill="#263238"/>
<path d="M56.4936 86.4538C56.4907 86.63 56.4191 86.7982 56.2941 86.9225C56.1692 87.0467 56.0006 87.1174 55.8244 87.1193C55.7383 87.1208 55.6528 87.1052 55.5728 87.0734C55.4929 87.0416 55.42 86.9943 55.3584 86.9341C55.2969 86.874 55.2479 86.8022 55.2143 86.723C55.1806 86.6438 55.1631 86.5586 55.1626 86.4726C55.1655 86.2963 55.2371 86.1282 55.3621 86.0039C55.4871 85.8796 55.6556 85.809 55.8319 85.8071C55.9181 85.8051 56.0038 85.8203 56.084 85.8519C56.1642 85.8835 56.2373 85.9308 56.2989 85.9911C56.3606 86.0513 56.4096 86.1233 56.443 86.2028C56.4764 86.2822 56.4937 86.3676 56.4936 86.4538Z" fill="#263238"/>
<path d="M56.6143 84.1376C56.5278 84.2241 56.0352 83.818 55.3208 83.7917C54.6064 83.7654 54.065 84.1076 53.9898 84.0136C53.9146 83.9196 54.0424 83.8143 54.2793 83.6376C54.5973 83.4311 54.9722 83.3298 55.3509 83.348C55.7234 83.3599 56.0821 83.4918 56.3736 83.724C56.5842 83.9346 56.6556 84.1 56.6143 84.1376Z" fill="#263238"/>
<path d="M58.9567 89.913C59.3391 89.8082 59.7333 89.7526 60.1298 89.7475C60.3141 89.7475 60.5058 89.7062 60.5246 89.5783C60.547 89.3844 60.5117 89.1882 60.4231 89.0143C60.2689 88.5518 60.1073 88.0668 59.9418 87.5592C59.2688 85.4837 58.8138 83.7992 58.874 83.7578C58.9341 83.7165 59.5658 85.3859 60.2351 87.4614C60.3968 87.9728 60.5509 88.4578 60.6938 88.9241C60.8043 89.1589 60.8282 89.4253 60.7615 89.6761C60.7326 89.7402 60.6895 89.7969 60.6354 89.8419C60.5814 89.8868 60.5177 89.9188 60.4494 89.9355C60.3473 89.9601 60.2424 89.9715 60.1373 89.9694C59.743 90.0008 59.3463 89.9818 58.9567 89.913Z" fill="#263238"/>
<path d="M56.9374 81.844C56.8321 82.0283 56.144 81.7989 55.298 81.7463C54.452 81.6936 53.7414 81.7951 53.6624 81.5959C53.6286 81.5019 53.779 81.3402 54.0835 81.2199C54.483 81.0499 54.918 80.9802 55.3506 81.0168C55.7835 81.0416 56.2041 81.1706 56.5764 81.3928C56.8584 81.5696 56.9825 81.7538 56.9374 81.844Z" fill="#263238"/>
<path d="M63.7656 82.0998C63.6114 82.2652 63.0136 82.0734 62.3292 82.0471C61.6449 82.0208 61.032 82.1261 60.9004 81.9456C60.8403 81.8591 60.938 81.6937 61.2012 81.5433C61.5643 81.3614 61.9684 81.2773 62.3739 81.299C62.7793 81.3208 63.1721 81.4477 63.5136 81.6673C63.7543 81.8441 63.8332 82.0208 63.7656 82.0998Z" fill="#263238"/>
<path d="M48.8798 86.5328C48.8008 86.4952 45.7139 85.4236 45.6838 88.7061C45.6537 91.9885 48.8648 91.3381 48.8723 91.2516C48.8798 91.1651 48.8798 86.5328 48.8798 86.5328Z" fill="#FFBF9D"/>
<path d="M47.9133 89.9956C47.9133 89.9956 47.8569 90.037 47.7629 90.0783C47.6968 90.1059 47.6258 90.1202 47.5542 90.1202C47.4825 90.1202 47.4116 90.1059 47.3455 90.0783C47.0109 89.9467 46.7289 89.394 46.7214 88.7999C46.7136 88.5193 46.7689 88.2405 46.883 87.984C46.9128 87.8827 46.9667 87.7902 47.04 87.7142C47.1134 87.6383 47.204 87.5812 47.3041 87.5479C47.369 87.5309 47.4378 87.5379 47.4979 87.5676C47.558 87.5973 47.6054 87.6477 47.6313 87.7095C47.6764 87.7998 47.6538 87.8675 47.6726 87.8712C47.6914 87.875 47.7403 87.8186 47.714 87.6832C47.6994 87.6014 47.6553 87.5278 47.5899 87.4764C47.5485 87.4407 47.4998 87.4145 47.4472 87.3996C47.3946 87.3846 47.3394 87.3813 47.2854 87.3899C47.1529 87.4159 47.0293 87.4755 46.9265 87.5631C46.8238 87.6507 46.7454 87.7633 46.6988 87.89C46.5608 88.1745 46.4925 88.4876 46.4995 88.8037C46.4995 89.4654 46.8379 90.0896 47.2966 90.2325C47.382 90.2582 47.472 90.2641 47.56 90.2497C47.6479 90.2354 47.7315 90.2012 47.8042 90.1498C47.9058 90.0746 47.9246 90.0031 47.9133 89.9956Z" fill="#FF9A6C"/>
<path d="M51.1733 78.3358C51.2479 77.9159 51.4358 77.5245 51.7168 77.2037C51.9978 76.8829 52.3611 76.6451 52.7675 76.5159C53.4679 76.2803 54.2276 76.2896 54.922 76.5423C56.723 77.1965 59.81 78.1779 60.5958 77.5499C61.7464 76.6475 62.0246 76.0459 62.0246 76.0459L62.6601 76.7378C63.1752 76.4445 61.6261 74.7224 60.3552 74.1283C58.4376 73.2335 55.5086 72.6807 53.7376 73.1959C51.6057 73.8163 49.8347 74.9029 48.7631 76.8995C47.731 78.9376 47.2452 81.2087 47.3531 83.4907C47.3531 84.1863 47.2441 86.1791 47.9134 86.3333C48.436 86.4499 49.1015 86.683 49.0639 87.6831C49.0378 88.0483 49.1567 88.409 49.3948 88.6871C49.9776 89.3263 50.692 88.7247 51.0229 88.1231C51.726 86.8371 51.805 85.3031 51.8651 83.8291C51.9652 82.7836 51.898 81.7289 51.6658 80.7046C51.4233 80.0529 51.2506 79.3773 51.1507 78.6892C51.1459 78.5709 51.1535 78.4525 51.1733 78.3358Z" fill="#263238"/>
<path d="M59.0805 91.6876C59.0993 91.7365 58.9527 91.8606 58.6556 91.9245C58.2616 92.003 57.8526 91.939 57.5013 91.744C57.1489 91.5525 56.8728 91.2459 56.7192 90.8754C56.6064 90.5934 56.6252 90.4054 56.6779 90.3904C56.7305 90.3754 57.0276 91.0146 57.7006 91.3793C58.3736 91.744 59.0504 91.5786 59.0805 91.6876Z" fill="#263238"/>
<path d="M62.4158 135.492L47.1426 132.13L37.3253 107.807C37.3253 107.807 24.2066 110.717 22.0446 118.064C20.1646 124.4 16.3069 152.404 25.0903 169.666C26.2095 171.841 27.9079 173.664 29.998 174.934C32.0881 176.204 34.4886 176.872 36.9342 176.863H103.776C107.851 176.863 111.784 175.362 114.822 172.646C117.86 169.929 119.791 166.189 120.245 162.139C120.621 158.755 120.884 155.548 120.831 153.457L110.1 145.223L62.4158 135.492Z" fill="#455A64"/>
<g opacity="0.3">
<path d="M103.25 143.952C107.953 150.096 113.676 155.608 120.519 159.225L120.846 150.885L108.205 141.887L103.25 143.952Z" fill="black"/>
</g>
<path d="M52.8014 103.077C52.8014 103.52 56.2756 104.957 57.8435 104.325C60.2349 103.37 59.9378 101.494 59.9378 101.494L61.2651 102.892L74.5642 123.159L84.4493 129.682L68.6272 134.694L52.0381 115.639L52.8014 103.077Z" fill="#F5F5F5"/>
<path d="M48.6089 96.2749L48.2592 96.9292L46.68 99.8732L40.1113 104.062L53.621 120.121L59.7836 134.695L74.5604 139.319C74.5604 139.319 67.5292 128.509 65.3447 122.982C63.1601 117.455 62.9383 117.718 60.9455 113.665C59.5908 110.809 58.386 107.885 57.3359 104.904L48.6089 96.2749Z" fill="#18432D"/>
<path d="M80.2607 125.208L83.1597 127.912L83.9794 129.581L73.2032 124.569L65.4238 113.665C65.4238 113.665 62.6527 107.517 61.7014 105.314C60.6975 102.998 59.9492 101.686 59.9492 101.686V99.8582L63.8709 103.4L67.1459 104.374L72.6204 113.022L80.2607 125.208Z" fill="#18432D"/>
<path d="M76.9404 115.011C76.9404 115.011 75.632 112.221 74.5641 109.901C72.1577 104.675 66.4839 104.178 66.4839 104.178L72.7556 121.572L80.4372 127.02C80.4372 127.02 82.6256 127.772 82.9 127.02C82.9 127.02 84.498 121.253 84.4492 121.23C84.4003 121.208 78.9821 119.587 78.9821 119.587L76.8013 114.699" fill="#18432D"/>
<path d="M88.4953 109.581L81.0317 122.016L88.8488 121.786L95.7409 110.266C95.8014 110.165 95.8341 110.049 95.8355 109.932C95.8369 109.814 95.807 109.698 95.7489 109.595C95.6908 109.493 95.6065 109.408 95.5047 109.348C95.4029 109.289 95.2871 109.258 95.1693 109.258H89.0669C88.9518 109.258 88.8386 109.288 88.7384 109.344C88.6383 109.401 88.5545 109.483 88.4953 109.581Z" fill="#263238"/>
<path d="M59.7837 123.644L78.4671 121.422L81.6067 115.921L84.0658 114.571C84.2696 114.458 84.5015 114.406 84.734 114.421C84.9665 114.436 85.1899 114.516 85.378 114.654L85.6111 114.823L87.4347 114.594C87.7455 114.553 88.0611 114.615 88.3334 114.77L89.6268 115.522C89.72 115.577 89.7975 115.655 89.8515 115.749C89.9055 115.842 89.9344 115.948 89.9351 116.056C89.935 116.147 89.9149 116.237 89.8762 116.319C89.8375 116.402 89.7811 116.474 89.7112 116.533C89.6412 116.591 89.5593 116.633 89.4713 116.656C89.3833 116.679 89.2914 116.682 89.2019 116.665L87.9461 116.436L86.021 117.064C86.021 117.064 87.2618 117.196 87.4197 118.136C87.5776 119.076 86.9497 119.098 86.9497 119.098C86.9497 119.098 88.2544 119.85 87.3257 120.978C87.3257 120.978 88.4161 121.704 87.1941 123.08C86.3706 124.012 80.4261 127.05 80.4261 127.05L59.7837 134.695V123.644Z" fill="#FFBF9D"/>
<path d="M87.2959 120.97C87.2959 120.97 87.435 120.97 87.6005 121.14C87.708 121.264 87.7826 121.414 87.8174 121.575C87.8522 121.736 87.8461 121.903 87.7997 122.061C87.6363 122.508 87.3589 122.904 86.9951 123.211C86.5892 123.609 86.1502 123.971 85.6829 124.294C84.829 124.867 83.927 125.364 82.9869 125.779C82.6103 125.975 82.2163 126.135 81.8101 126.257C82.1721 126.031 82.549 125.83 82.9381 125.655C83.849 125.208 84.7284 124.7 85.5701 124.133C86.0307 123.816 86.4657 123.464 86.871 123.08C87.2199 122.8 87.4928 122.436 87.6644 122.023C87.7119 121.885 87.7258 121.737 87.7049 121.591C87.684 121.446 87.6288 121.308 87.5441 121.189C87.4719 121.105 87.3883 121.031 87.2959 120.97Z" fill="#FF9A6C"/>
<path d="M85.5436 114.872C85.2581 115.048 84.9416 115.168 84.6111 115.225C84.2963 115.343 83.9619 115.399 83.626 115.391C83.9107 115.213 84.2275 115.093 84.5585 115.037C84.8733 114.92 85.2076 114.864 85.5436 114.872Z" fill="#FF9A6C"/>
<path d="M87.9498 116.421C87.5432 116.656 87.1069 116.836 86.6526 116.955C86.2169 117.133 85.759 117.25 85.2915 117.305C85.6964 117.066 86.1332 116.886 86.5887 116.771C87.0238 116.591 87.482 116.473 87.9498 116.421Z" fill="#FF9A6C"/>
<path d="M85.7279 118.914C85.6715 118.914 85.6452 118.745 85.5813 118.56C85.5174 118.376 85.4422 118.233 85.4835 118.184C85.5249 118.136 85.6903 118.26 85.7655 118.489C85.8407 118.718 85.7618 118.921 85.7279 118.914Z" fill="#FF9A6C"/>
<path d="M86.3481 121.072C86.2917 121.072 86.3143 120.79 86.2353 120.485C86.1564 120.181 86.021 119.948 86.0624 119.91C86.1037 119.873 86.3369 120.076 86.4384 120.437C86.5399 120.798 86.397 121.072 86.3481 121.072Z" fill="#FF9A6C"/>
<path d="M40.6381 103.727C40.0139 104.103 34.7311 107.713 35.5019 113.624C36.2727 119.534 47.9663 132.897 50.4066 133.153L59.7878 134.695V123.644L55.2758 123.388L49.3801 111.823L40.6381 103.727Z" fill="#18432D"/>
<path d="M59.784 123.11C59.6736 123.13 59.5616 123.14 59.4493 123.14L58.5018 123.178L55.1404 123.253H55.0952L55.0652 123.215L52.6888 120.019C51.2713 118.105 50.0004 116.365 49.0868 115.097L48.0152 113.593C47.8744 113.414 47.7486 113.222 47.6392 113.022C47.798 113.185 47.9438 113.359 48.0753 113.545L49.2033 115.011C50.1471 116.252 51.4593 117.981 52.8543 119.899L55.2118 123.106L55.1366 123.069H58.498H59.4456C59.5596 123.068 59.6733 123.082 59.784 123.11Z" fill="#263238"/>
<path d="M57.505 106.348C57.4343 106.242 57.3726 106.13 57.3208 106.013L56.8583 105.043H56.9598C56.6185 105.539 56.3156 106.061 56.0537 106.603C55.722 107.326 55.3282 108.018 54.8768 108.671L54.8016 108.777L54.7226 108.675C54.1135 107.923 53.4179 107.13 52.6697 106.314C51.0341 104.535 49.4699 102.994 48.3532 101.866L47.0334 100.524C46.8666 100.366 46.7132 100.195 46.5747 100.012C46.759 100.15 46.9325 100.302 47.0936 100.467L48.4585 101.761C49.5865 102.862 51.1845 104.393 52.8276 106.171C53.5796 106.991 54.2714 107.795 54.8768 108.551H54.7189C55.1677 107.907 55.565 107.228 55.907 106.521C56.1809 105.976 56.5017 105.457 56.8658 104.968L56.926 104.885L56.9636 104.975C57.1328 105.381 57.2719 105.709 57.3772 105.968C57.4359 106.089 57.4788 106.216 57.505 106.348Z" fill="#263238"/>
<path d="M63.92 103.521C64.0453 103.688 64.1408 103.877 64.202 104.077C64.3946 104.585 64.559 105.104 64.6945 105.63L64.8224 106.089L64.5291 105.713C64.1094 105.192 63.6493 104.705 63.1529 104.257C62.7168 103.859 62.2919 103.505 61.9046 103.152L62.0625 103.092C62.0081 103.708 61.9893 104.327 62.0061 104.946C62.0204 105.191 61.9885 105.437 61.9121 105.671C61.8896 105.671 61.9121 105.404 61.8858 104.949C61.8369 104.324 61.8369 103.695 61.8858 103.069L61.9046 102.893L62.0437 103.009C62.4197 103.336 62.8709 103.701 63.3108 104.107C63.8175 104.565 64.2807 105.068 64.6945 105.611L64.5291 105.69C64.3674 105.04 64.2358 104.498 64.1155 104.126C64.036 103.929 63.9706 103.727 63.92 103.521Z" fill="#263238"/>
<path d="M77.4894 121.538C77.3291 121.413 77.1795 121.275 77.042 121.125L75.8876 119.944C75.4026 119.436 74.8273 118.869 74.1956 118.166C73.9061 117.79 73.6504 117.387 73.3496 116.992C73.0444 116.566 72.7824 116.11 72.5676 115.631C72.1201 114.661 71.7817 113.702 71.4772 112.834C71.1726 111.965 70.9056 111.179 70.6612 110.533C70.4168 109.886 70.1912 109.367 70.0183 109.029C69.9164 108.854 69.826 108.673 69.7476 108.487C69.7476 108.487 69.7889 108.525 69.8453 108.608C69.9345 108.728 70.0161 108.853 70.0897 108.984C70.3594 109.469 70.5968 109.971 70.8004 110.488C71.0673 111.134 71.3493 111.913 71.6614 112.777C71.9735 113.642 72.3156 114.594 72.7593 115.552C72.9675 116.018 73.2193 116.462 73.5113 116.88C73.8159 117.282 74.0716 117.699 74.346 118.057C74.9364 118.73 75.5267 119.339 75.9892 119.85L77.0984 121.072C77.2417 121.216 77.3725 121.372 77.4894 121.538Z" fill="#263238"/>
<path d="M82.9116 127.776L118.376 126.78C118.938 126.765 119.496 126.869 120.015 127.084C121.305 127.633 123.625 129.043 125.215 132.42C127.52 137.308 138.274 157.988 138.274 157.988L127.4 163.56L114.063 138.819L72.9438 135.322L73.4214 132.036L82.9116 127.776Z" fill="#263238"/>
<path d="M124.17 159.202L129.836 168.929L130.212 171.388C130.267 171.746 130.391 172.089 130.579 172.399C130.766 172.708 131.013 172.978 131.304 173.192C131.596 173.406 131.927 173.56 132.278 173.646C132.629 173.732 132.994 173.748 133.352 173.693L150.599 171.061C150.803 171.034 150.998 170.961 151.168 170.846C151.339 170.732 151.482 170.58 151.584 170.402C151.687 170.224 151.748 170.025 151.761 169.82C151.775 169.614 151.741 169.409 151.663 169.219C151.589 169.05 151.476 168.902 151.334 168.786C151.191 168.669 151.023 168.589 150.843 168.55C149.4 168.174 138.27 164.094 138.27 164.094L133.63 154.784L124.17 159.202Z" fill="#E0E0E0"/>
<path d="M128.919 161.454C128.445 160.975 128.018 160.451 127.644 159.89C127.213 159.369 126.835 158.806 126.516 158.209C126.988 158.69 127.413 159.214 127.787 159.774C128.218 160.296 128.597 160.858 128.919 161.454Z" fill="#263238"/>
<path d="M132.303 160.093C131.828 159.609 131.427 159.056 131.115 158.454C130.747 157.884 130.463 157.263 130.272 156.611C130.325 156.585 130.724 157.397 131.284 158.356C131.844 159.315 132.352 160.059 132.303 160.093Z" fill="#263238"/>
<path d="M134.668 173.381C134.63 173.381 134.54 173.047 134.292 172.539C133.96 171.881 133.487 171.303 132.907 170.848C132.326 170.394 131.653 170.072 130.934 169.907C130.382 169.775 130.024 169.772 130.024 169.734C130.335 169.663 130.658 169.663 130.968 169.734C131.728 169.862 132.445 170.178 133.051 170.655C133.657 171.131 134.134 171.752 134.439 172.46C134.581 172.747 134.659 173.061 134.668 173.381Z" fill="#263238"/>
<path d="M146.29 171.708C146.147 171.519 146.053 171.299 146.015 171.065C145.88 170.504 145.908 169.915 146.098 169.369C146.294 168.834 146.6 168.346 146.997 167.937C147.143 167.753 147.325 167.599 147.531 167.486C147.553 167.512 147.377 167.711 147.117 168.042C146.778 168.465 146.506 168.938 146.313 169.445C146.139 169.955 146.092 170.499 146.173 171.031C146.23 171.254 146.269 171.48 146.29 171.708Z" fill="#263238"/>
<path d="M72.0527 132.615C72.0527 132.615 108.649 128.946 110.427 129.092C113.71 129.363 119.763 134.54 130.506 141.752C136.071 145.534 141.237 149.875 145.922 154.705L142.489 162.541C142.489 162.541 118.425 153.769 114.646 150.614C111.51 147.982 105.787 144.26 105.787 144.26L91.6724 144.403L81.1782 145.328C78.5896 145.557 75.9852 145.128 73.6068 144.081C71.2284 143.034 69.1534 141.402 67.5745 139.338L63.5024 134.018L72.0527 132.615Z" fill="#263238"/>
<path d="M105.611 144.151C105.611 144.151 105.671 144.185 105.78 144.26L106.272 144.598L108.171 145.933C109.822 147.11 112.243 148.802 115.214 151.047C115.402 151.186 115.59 151.348 115.778 151.472L116.383 151.848C116.819 152.066 117.255 152.306 117.718 152.521L119.132 153.179L120.636 153.837C122.668 154.716 124.861 155.634 127.212 156.589C131.904 158.495 137.168 160.567 142.85 162.752L142.726 162.808L145.835 154.912L145.858 155.025L141.586 150.671C140.582 149.802 139.507 148.877 138.409 147.963C131.86 142.567 125.011 137.545 117.895 132.923C116.931 132.098 115.891 131.367 114.789 130.739C113.742 130.13 112.628 129.645 111.469 129.295C111.183 129.22 110.897 129.16 110.615 129.088L109.762 128.957L108.908 128.912H104.772L93.7215 128.889L86.5474 128.859H84.6674H84.1786C84.1235 128.862 84.0683 128.862 84.0132 128.859H84.1786H84.6674H86.5474L93.7215 128.833L104.772 128.81H108.908L109.777 128.851L110.649 128.983C110.935 129.054 111.224 129.115 111.514 129.194C112.688 129.542 113.816 130.029 114.875 130.645C115.992 131.276 117.044 132.014 118.019 132.848C125.15 137.464 132.009 142.485 138.563 147.888C139.665 148.802 140.74 149.727 141.744 150.599L146.016 154.957L146.061 155.006L146.038 155.07L142.917 162.966L142.884 163.056L142.793 163.022C137.112 160.83 131.848 158.747 127.159 156.83C124.817 155.871 122.621 154.95 120.59 154.058L119.086 153.393L117.658 152.656C117.199 152.434 116.759 152.194 116.323 151.972L115.702 151.596C115.499 151.472 115.326 151.31 115.138 151.171C112.183 148.915 109.769 147.204 108.134 146.008L106.254 144.651L105.772 144.297C105.656 144.196 105.611 144.151 105.611 144.151Z" fill="#455A64"/>
<path d="M134.706 160.552L144.858 164.541L146.546 166.369C146.792 166.634 147.087 166.849 147.416 167C147.745 167.152 148.101 167.237 148.462 167.251C148.824 167.265 149.185 167.207 149.525 167.082C149.864 166.956 150.176 166.765 150.441 166.519L163.248 154.668C163.401 154.531 163.521 154.36 163.598 154.17C163.676 153.979 163.708 153.774 163.694 153.568C163.679 153.363 163.618 153.164 163.515 152.987C163.411 152.809 163.268 152.657 163.097 152.543C162.941 152.446 162.765 152.387 162.582 152.371C162.399 152.355 162.215 152.381 162.045 152.449C160.642 152.953 149.133 155.799 149.133 155.799L141.413 149.648L134.706 160.552Z" fill="#E0E0E0"/>
<path d="M134.706 160.552C134.706 160.552 134.739 160.488 134.815 160.36L135.157 159.796C135.461 159.289 135.909 158.556 136.477 157.616C137.635 155.709 139.304 152.972 141.365 149.611L141.406 149.539L141.474 149.592L149.193 155.728H149.114L155.98 153.998L159.608 153.055C160.221 152.889 160.841 152.728 161.458 152.547L161.917 152.404C162.076 152.343 162.243 152.304 162.413 152.288C162.59 152.28 162.767 152.31 162.932 152.375C163.097 152.44 163.247 152.538 163.372 152.664C163.616 152.908 163.765 153.233 163.791 153.578C163.816 153.923 163.717 154.266 163.511 154.544C163.408 154.68 163.292 154.806 163.165 154.92L162.815 155.243L162.12 155.886L159.39 158.409L154.227 163.177L151.825 165.395L150.674 166.459C150.487 166.64 150.283 166.803 150.065 166.944C149.53 167.273 148.901 167.414 148.277 167.346C147.653 167.278 147.069 167.004 146.617 166.568C145.971 165.895 145.384 165.237 144.809 164.617H144.835C141.703 163.368 139.169 162.361 137.405 161.654L135.405 160.845L134.886 160.635L134.717 160.563C134.717 160.563 134.785 160.582 134.909 160.631L135.439 160.83L137.469 161.612L144.884 164.489C145.463 165.105 146.061 165.767 146.692 166.425C147.032 166.749 147.45 166.978 147.905 167.089C148.36 167.201 148.837 167.191 149.287 167.061C149.521 166.993 149.745 166.893 149.952 166.764C150.161 166.627 150.355 166.469 150.531 166.294C150.907 165.944 151.283 165.587 151.682 165.23C152.459 164.508 153.259 163.766 154.081 163.004C155.72 161.5 157.446 159.883 159.236 158.228C160.128 157.399 161.037 156.556 161.962 155.702L162.657 155.059C162.893 154.854 163.117 154.636 163.327 154.405C163.506 154.164 163.593 153.867 163.572 153.568C163.552 153.268 163.425 152.986 163.214 152.773C163.107 152.667 162.979 152.585 162.839 152.532C162.698 152.479 162.548 152.456 162.398 152.464C162.246 152.48 162.096 152.516 161.954 152.573L161.484 152.716C160.864 152.897 160.247 153.058 159.631 153.224L155.998 154.164L149.133 155.882H149.088L149.054 155.856L141.376 149.705H141.485L136.563 157.623L135.198 159.8L134.822 160.368C134.754 160.481 134.706 160.552 134.706 160.552Z" fill="#263238"/>
<path d="M151.344 165.523C151.317 165.549 151.05 165.316 150.55 165.041C149.907 164.681 149.192 164.466 148.456 164.414C147.72 164.361 146.982 164.471 146.294 164.737C145.764 164.936 145.463 165.132 145.44 165.113C145.665 164.886 145.935 164.711 146.234 164.598C146.935 164.279 147.705 164.14 148.474 164.195C149.242 164.251 149.985 164.498 150.633 164.914C150.913 165.061 151.156 165.269 151.344 165.523Z" fill="#263238"/>
<path d="M160.037 157.631C159.814 157.552 159.612 157.423 159.447 157.255C159.021 156.865 158.717 156.361 158.57 155.803C158.433 155.249 158.413 154.673 158.51 154.111C158.527 153.877 158.593 153.649 158.702 153.442C158.721 153.672 158.711 153.903 158.672 154.13C158.623 154.67 158.663 155.215 158.789 155.743C158.93 156.264 159.196 156.742 159.563 157.138C159.845 157.439 160.059 157.597 160.037 157.631Z" fill="#263238"/>
<path d="M99.3878 144.155C98.6019 140.429 96.9964 136.616 93.8192 134.522C91.4091 132.927 88.4274 132.536 85.5472 132.183L25.5902 124.81C25.0526 134.258 29.0983 146.02 33.2268 154.54C33.866 155.863 34.6067 157.217 35.8325 158.025C37.3365 159.011 39.2466 158.999 41.0363 158.954C61.2087 158.439 81.3887 157.582 101.448 155.375C100.32 151.739 100.17 147.877 99.3878 144.155Z" fill="#455A64"/>
<path d="M47.65 127.521C47.4136 127.523 47.1773 127.508 46.9432 127.475L45.0256 127.269C43.4088 127.081 41.1791 126.806 38.72 126.468C36.261 126.129 34.0351 125.787 32.4333 125.505C31.6287 125.362 30.982 125.246 30.5533 125.129C30.32 125.09 30.09 125.034 29.8652 124.96C30.1015 124.971 30.3365 125 30.5684 125.046L32.4709 125.34C34.0802 125.58 36.3024 125.9 38.7614 126.238L45.0594 127.099L46.9695 127.374C47.1998 127.405 47.4274 127.454 47.65 127.521Z" fill="#263238"/>
<path d="M47.9586 176.844C47.935 176.807 47.9149 176.768 47.8985 176.728C47.8533 176.641 47.8007 176.525 47.733 176.382L47.1239 175.039L46.684 174.088C46.5336 173.712 46.3869 173.336 46.2177 172.907C45.8944 172.061 45.4883 171.106 45.1424 170.012C44.9619 169.471 44.7664 168.903 44.5746 168.309C44.3829 167.715 44.1986 167.083 44.0294 166.429C43.6534 165.139 43.3301 163.733 42.9841 162.259C41.5891 155.826 41.1319 149.226 41.6268 142.662C41.7659 141.158 41.8749 139.722 42.0855 138.391C42.187 137.725 42.2547 137.078 42.3675 136.462C42.4803 135.845 42.5931 135.259 42.6984 134.695C42.8901 133.567 43.1609 132.563 43.3639 131.687C43.4729 131.243 43.5632 130.833 43.6647 130.457C43.7662 130.081 43.8753 129.743 43.9655 129.434C44.1422 128.829 44.2851 128.355 44.3829 128.021L44.4994 127.645C44.5101 127.602 44.5252 127.56 44.5445 127.521C44.5417 127.564 44.5329 127.607 44.5182 127.648L44.4242 128.024L44.0482 129.446L43.7662 130.472C43.6722 130.848 43.5857 131.265 43.4842 131.705C43.2887 132.593 43.0293 133.585 42.8488 134.713C42.751 135.274 42.642 135.864 42.5329 136.477C42.4239 137.09 42.36 137.736 42.266 138.402C42.0592 139.729 41.9577 141.162 41.8223 142.666C41.3578 149.214 41.8135 155.796 43.1759 162.218C43.5181 163.688 43.8151 165.094 44.2024 166.38C44.3866 167.027 44.5408 167.655 44.7325 168.26C44.9243 168.865 45.1085 169.422 45.289 169.963C45.6237 171.058 46.0185 172.013 46.3305 172.866C46.496 173.291 46.6351 173.69 46.7817 174.051L47.2029 175.024L47.7744 176.382L47.921 176.739C47.9372 176.773 47.9498 176.808 47.9586 176.844Z" fill="#263238"/>
<path d="M47.3231 157.792C46.5389 157.863 45.7498 157.863 44.9656 157.792C44.1761 157.791 43.3884 157.72 42.6118 157.578C43.3974 157.509 44.1875 157.509 44.9731 157.578C45.7612 157.58 46.5476 157.652 47.3231 157.792Z" fill="#263238"/>
<path d="M46.778 160.552C45.9407 160.479 45.122 160.264 44.3566 159.917C43.5647 159.635 42.8271 159.219 42.1758 158.687C42.2096 158.635 43.1647 159.21 44.4318 159.721C45.6989 160.233 46.7893 160.469 46.778 160.552Z" fill="#263238"/>
<path d="M41.5251 141.707C41.0563 142.001 40.5179 142.166 39.9647 142.184C39.4177 142.27 38.8579 142.211 38.3403 142.015C38.3403 141.951 39.066 142.06 39.9459 141.974C40.8257 141.887 41.5025 141.65 41.5251 141.707Z" fill="#263238"/>
<path d="M42.7246 140.804C42.1423 140.926 41.5362 140.849 41.0025 140.586C40.4414 140.388 39.9643 140.005 39.6489 139.5C40.0982 139.842 40.5792 140.14 41.0852 140.391C41.9425 140.763 42.7246 140.737 42.7246 140.804Z" fill="#263238"/>
<path d="M63.8369 76.3882C63.6873 75.9984 63.4464 75.6501 63.1343 75.3727C62.8222 75.0953 62.4481 74.8969 62.0434 74.794C61.229 74.5924 60.3744 74.6237 59.5769 74.8842L51.7861 76.6665C52.9141 77.4185 55.2341 78.1254 56.5651 78.2682C58.509 78.475 59.8777 78.4938 61.0357 77.8246C61.1111 78.0166 61.2263 78.1905 61.3737 78.3347C61.5212 78.4789 61.6976 78.5903 61.8912 78.6613C62.0849 78.7324 62.2914 78.7616 62.4972 78.747C62.7029 78.7324 62.9033 78.6743 63.0849 78.5766C63.4363 78.3479 63.7012 78.0083 63.8375 77.6118C63.9737 77.2153 63.9735 76.7846 63.8369 76.3882Z" fill="#263238"/>
<path d="M141.673 158.116C140.089 157.787 138.567 157.214 137.161 156.416C137.183 156.363 138.176 156.792 139.417 157.258C140.657 157.724 141.688 158.063 141.673 158.116Z" fill="#263238"/>
<path d="M143.387 154.784C142.706 154.504 142.04 154.189 141.391 153.84C140.713 153.553 140.052 153.229 139.409 152.87C140.128 153.049 140.823 153.316 141.477 153.664C142.159 153.954 142.801 154.331 143.387 154.784Z" fill="#263238"/>
<path d="M81.3321 131.19L97.0376 131.382L116.003 127.622C116.301 127.56 116.573 127.408 116.783 127.188C116.993 126.968 117.132 126.689 117.18 126.389L119.759 109.311C119.788 109.115 119.771 108.915 119.708 108.727C119.646 108.539 119.539 108.368 119.398 108.229C119.257 108.09 119.085 107.986 118.896 107.925C118.708 107.865 118.507 107.85 118.312 107.882L98.9289 111.037C98.6603 111.081 98.4131 111.21 98.2241 111.406C98.0351 111.602 97.9144 111.853 97.8799 112.123L95.7179 129.491L81.3547 129.419C81.12 129.419 80.8948 129.512 80.7285 129.678C80.5622 129.843 80.4683 130.068 80.4673 130.303C80.4663 130.535 80.5563 130.758 80.7181 130.924C80.8799 131.09 81.1004 131.185 81.3321 131.19Z" fill="#E0E0E0"/>
<path d="M81.3325 131.19C81.231 131.198 81.1292 131.181 81.0355 131.141C80.8933 131.09 80.7665 131.004 80.6672 130.89C80.5678 130.776 80.4992 130.639 80.4677 130.491C80.4423 130.37 80.4418 130.245 80.4662 130.124C80.4907 130.002 80.5396 129.887 80.6099 129.786C80.6803 129.684 80.7707 129.598 80.8755 129.532C80.9804 129.466 81.0975 129.423 81.2197 129.404C81.795 129.382 82.4455 129.404 83.19 129.404L95.7145 129.434L95.6469 129.494C96.2635 124.497 96.9967 118.59 97.8051 112.018C97.852 111.799 97.9524 111.594 98.0974 111.423C98.2423 111.252 98.4274 111.119 98.636 111.037C98.8414 110.97 99.0531 110.926 99.2677 110.905L99.8919 110.8L102.422 110.39L107.637 109.536L113.041 108.664L115.8 108.217L117.195 107.987L117.895 107.874C118.134 107.822 118.379 107.796 118.624 107.795C118.893 107.819 119.148 107.921 119.359 108.089C119.57 108.256 119.726 108.483 119.809 108.739C119.88 108.993 119.887 109.26 119.831 109.517L119.718 110.247C119.573 111.22 119.428 112.186 119.282 113.146C118.993 115.06 118.707 116.951 118.425 118.805C118.143 120.658 117.868 122.474 117.601 124.257L117.398 125.58C117.365 125.802 117.335 126.02 117.301 126.238C117.279 126.469 117.217 126.695 117.116 126.904C117.011 127.111 116.861 127.292 116.677 127.435C116.493 127.577 116.28 127.677 116.052 127.727L114.781 127.979L97.0531 131.468L85.54 131.299L82.4304 131.243L81.592 131.224H82.4004L85.5136 131.243L97.0268 131.352L114.748 127.817L116.015 127.562C116.215 127.518 116.404 127.43 116.567 127.305C116.729 127.179 116.862 127.019 116.955 126.836C117.046 126.645 117.101 126.438 117.116 126.227L117.218 125.569C117.282 125.129 117.35 124.685 117.417 124.242L118.237 118.79C118.515 116.937 118.8 115.057 119.09 113.15C119.233 112.192 119.379 111.226 119.527 110.251L119.636 109.521C119.694 109.296 119.694 109.059 119.636 108.833C119.566 108.614 119.433 108.419 119.252 108.276C119.072 108.132 118.854 108.044 118.624 108.025C118.395 108.027 118.167 108.052 117.944 108.1L117.241 108.217L115.849 108.442L113.086 108.89L107.686 109.769L102.471 110.615L99.9408 111.025L99.3166 111.127C99.1135 111.147 98.913 111.188 98.7188 111.251C98.5385 111.321 98.3787 111.435 98.2539 111.583C98.1291 111.731 98.0433 111.907 98.0044 112.097C97.1772 118.647 96.4327 124.561 95.8048 129.555V129.615H95.7409L83.2163 129.524C82.4643 129.524 81.8138 129.502 81.2536 129.524C81.127 129.542 81.006 129.587 80.8993 129.658C80.7926 129.728 80.703 129.821 80.6369 129.931C80.5719 130.038 80.5311 130.159 80.5176 130.284C80.504 130.409 80.5179 130.536 80.5584 130.655C80.5988 130.775 80.6649 130.884 80.7518 130.975C80.8388 131.066 80.9446 131.137 81.0618 131.183C81.1514 131.196 81.2423 131.198 81.3325 131.19Z" fill="#263238"/>
<path d="M99.557 111.585C99.6097 111.585 99.0908 116.124 98.3952 121.711C97.6996 127.299 97.0942 131.822 97.0378 131.814C96.9814 131.807 97.5078 127.276 98.2034 121.689C98.899 116.101 99.5044 111.578 99.557 111.585Z" fill="#263238"/>
<path d="M107.987 118.635C107.592 119.459 107.81 120.384 108.472 120.703C109.134 121.023 109.976 120.609 110.386 119.786C110.796 118.963 110.562 118.038 109.901 117.722C109.239 117.406 108.382 117.812 107.987 118.635Z" fill="white"/>
<path d="M251.424 111.54C251.417 111.589 251.405 111.637 251.386 111.683L251.251 112.093C251.13 112.45 250.957 112.977 250.713 113.653C250.239 115.007 249.525 116.958 248.581 119.346C246.147 125.576 243.237 131.61 239.877 137.394C238.929 139.037 238.098 140.744 237.391 142.504C236.753 144.154 236.307 145.873 236.06 147.625C235.693 150.603 235.693 153.615 236.06 156.593C236.335 159.142 236.703 161.187 236.94 162.609C237.06 163.304 237.154 163.853 237.222 164.237C237.252 164.413 237.275 164.553 237.29 164.658C237.3 164.706 237.306 164.755 237.309 164.804C237.292 164.758 237.28 164.71 237.271 164.662C237.248 164.56 237.218 164.421 237.184 164.24C237.109 163.864 237 163.315 236.865 162.62C236.605 161.21 236.214 159.168 235.921 156.604C235.537 153.609 235.53 150.577 235.899 147.58C236.14 145.814 236.585 144.081 237.226 142.417C237.934 140.643 238.768 138.921 239.722 137.266C243.075 131.487 245.997 125.469 248.464 119.26C249.427 116.883 250.16 114.939 250.657 113.593C250.905 112.928 251.096 112.409 251.228 112.044L251.382 111.642C251.401 111.585 251.424 111.54 251.424 111.54Z" fill="#263238"/>
<path d="M247.784 134.089C247.75 134.165 247.71 134.238 247.664 134.307L247.288 134.913C246.957 135.439 246.464 136.191 245.855 137.116C244.637 138.97 242.9 141.493 241.151 144.388C240.287 145.839 239.516 147.253 238.869 148.565C238.222 149.877 237.703 151.092 237.294 152.118C236.884 153.145 236.583 153.998 236.395 154.581C236.297 154.859 236.222 155.085 236.162 155.258C236.14 155.338 236.108 155.415 236.068 155.487C236.077 155.405 236.096 155.324 236.124 155.247C236.173 155.07 236.241 154.841 236.32 154.559C236.489 153.961 236.779 153.111 237.162 152.069C237.546 151.028 238.061 149.813 238.704 148.486C239.347 147.159 240.114 145.741 240.986 144.286C242.734 141.384 244.494 138.872 245.739 137.037L247.224 134.871L247.634 134.285C247.677 134.215 247.727 134.149 247.784 134.089Z" fill="#263238"/>
<path d="M251.386 111.54C251.48 110.623 250.487 109.709 249.622 109.386C248.731 109.125 247.784 109.125 246.893 109.386C244.28 110.009 241.902 111.371 240.044 113.311C238.185 115.25 236.925 117.683 236.414 120.32C238.827 119.126 241.309 118.077 243.847 117.177L243.418 117.301C244.649 117.052 245.811 116.54 246.825 115.799C247.838 115.057 248.679 114.105 249.288 113.007C249.486 112.567 249.751 112.162 250.074 111.804C250.239 111.628 250.455 111.509 250.692 111.461C250.928 111.414 251.173 111.442 251.393 111.54" fill="#455A64"/>
<path d="M251.394 111.533C253.793 109.874 256.742 109.212 259.62 109.687C261.044 109.938 262.395 110.499 263.577 111.332C264.76 112.164 265.744 113.247 266.46 114.503C267.149 115.771 267.514 117.191 267.521 118.634C267.529 120.077 267.178 121.5 266.501 122.775C265.17 120.012 263.745 117.135 261.271 115.323C260.688 114.902 260.034 114.514 259.707 113.872C259.331 113.12 259.485 112.213 259.158 111.446C258.759 110.503 257.654 110.224 256.635 110.172C255.616 110.119 252.642 111.063 251.394 111.518" fill="#455A64"/>
<path d="M251.33 111.488C253.789 110.758 256.571 111.962 258.248 113.804C259.925 115.646 260.771 118.12 261.06 120.595C261.35 123.069 261.117 125.569 260.865 128.047C258.939 125.171 257.507 121.994 256.627 118.647C256.251 117.143 255.943 115.579 255.232 114.188C254.825 113.474 254.263 112.862 253.587 112.394C252.912 111.926 252.141 111.615 251.33 111.484" fill="#455A64"/>
<path d="M251.247 111.54C253.213 110.63 254.323 108.577 254.575 106.423C254.689 105.342 254.531 104.25 254.115 103.247C253.698 102.243 253.037 101.36 252.191 100.678C251.223 101.588 250.535 102.757 250.21 104.045C249.885 105.334 249.936 106.689 250.356 107.95C250.773 109.134 251.529 110.318 251.247 111.54Z" fill="#455A64"/>
<path d="M235.53 151.423C235.48 151.329 235.438 151.231 235.406 151.129C235.327 150.934 235.233 150.641 235.079 150.272C234.793 149.52 234.327 148.467 233.737 147.185C232.112 143.855 230.257 140.641 228.187 137.567C226.154 134.467 223.899 131.518 221.442 128.742C220.7 127.9 219.893 127.118 219.028 126.404C218.791 126.212 218.539 126.039 218.276 125.885C218.179 125.839 218.086 125.786 217.998 125.727C218.099 125.761 218.198 125.801 218.295 125.847C218.567 125.992 218.827 126.158 219.073 126.343C219.96 127.039 220.785 127.81 221.539 128.648C224.034 131.403 226.31 134.349 228.345 137.458C230.429 140.536 232.277 143.768 233.872 147.125C234.466 148.422 234.899 149.494 235.162 150.246C235.305 150.622 235.388 150.915 235.455 151.114C235.489 151.215 235.514 151.318 235.53 151.423Z" fill="#263238"/>
<path d="M242.606 173.885H229.168L227.074 158.33H245.107L242.606 173.885Z" fill="#18432D"/>
<path d="M255.199 139.658C253.841 136.744 250.352 134.841 247.148 135.101C247.494 135.272 247.794 135.522 248.026 135.83C248.258 136.138 248.414 136.496 248.483 136.875C248.609 137.633 248.677 138.4 248.686 139.169C248.976 142.85 251.345 145.989 253.616 148.896C255.214 150.938 256.823 152.991 258.733 154.747C258.504 149.513 258.173 143.967 255.199 139.658Z" fill="#455A64"/>
<path d="M247.148 135.142C249.183 133.578 251.807 132.927 254.375 132.886C256.943 132.845 259.477 133.412 261.963 134.044C263.467 134.42 264.971 134.841 266.253 135.706C267.535 136.571 268.55 137.962 268.573 139.5C266.464 137.18 263.065 136.732 260.053 135.856C258.015 135.266 256.045 134.416 253.965 133.976C251.631 133.595 249.236 133.992 247.148 135.104" fill="#455A64"/>
<path d="M247.498 134.728C246.607 133.792 247.1 131.604 247.874 130.574C248.649 129.543 249.886 128.96 251.104 128.528C252.706 127.957 254.367 127.57 256.056 127.374C255.84 128.436 255.291 129.401 254.488 130.13C253.688 130.848 252.813 131.479 251.879 132.01L247.491 134.725" fill="#455A64"/>
<path d="M239.136 133.48C236.591 134.608 234.624 136.68 232.718 138.71C235.543 138.023 238.246 136.904 240.73 135.394C241.715 134.792 242.693 134.119 243.821 133.867C244.949 133.615 246.212 134.119 247.152 134.898C245.554 132.544 241.682 132.352 239.136 133.48Z" fill="#455A64"/>
<path d="M237.936 150.133C239.361 146.862 238.76 142.895 240.568 139.823C241.956 137.469 244.513 136.063 247.058 135.078C247.648 136.849 247.366 138.838 246.618 140.541C245.87 142.244 244.682 143.733 243.43 145.117C241.696 147.031 239.813 148.802 237.933 150.573" fill="#455A64"/>
<path d="M245.934 158.33H225.837V161.83H245.934V158.33Z" fill="#18432D"/>
<path d="M245.265 161.939C245.265 161.996 240.915 162.037 235.553 162.037C230.191 162.037 225.837 161.996 225.837 161.939C225.837 161.883 230.187 161.842 235.553 161.842C240.918 161.842 245.265 161.887 245.265 161.939Z" fill="#263238"/>
<path d="M252.296 111.672C251.631 110.429 250.849 109.252 249.961 108.156C249.064 107.058 247.874 106.238 246.528 105.791C244.716 105.261 242.768 105.682 240.963 106.22C238.849 106.85 236.784 107.637 234.786 108.574C237.424 109.567 240.325 109.618 242.997 108.72C244.381 108.25 245.723 108.31 247.175 108.476C248.942 108.675 251.153 110.311 252.296 111.672Z" fill="#455A64"/>
<path d="M204.296 132.412C201.13 136.443 200.073 141.812 200.431 146.941C202.314 140.117 206.233 134.03 211.665 129.491C213.733 127.776 216.373 126.415 218.934 126.415C213.666 125.96 207.552 128.254 204.296 132.412Z" fill="#455A64"/>
<path d="M211.65 124.317C209.883 124.449 208.266 125.343 206.807 126.344C204.574 127.878 202.476 129.814 201.502 132.36C203.48 130.031 206.001 128.226 208.843 127.104C211.685 125.982 214.759 125.577 217.794 125.926C215.869 124.956 213.793 124.159 211.65 124.317Z" fill="#455A64"/>
<path d="M216.598 118.263C215.576 118.974 214.794 120.143 214.846 121.384C214.916 122.243 215.274 123.052 215.861 123.682C216.507 124.431 217.223 125.116 218.001 125.727C218.651 122.854 219.43 119.854 220.08 116.981C218.845 117.17 217.661 117.606 216.598 118.263Z" fill="#455A64"/>
<path d="M222.592 117.989C221.175 118.839 220.034 120.081 219.306 121.565C218.633 123.069 218.355 124.949 219.201 126.355C221.625 122.729 224.241 119.235 227.037 115.887C225.491 116.443 224.003 117.147 222.592 117.989Z" fill="#455A64"/>
<path d="M227.657 122.922C226.065 122.81 224.47 123.087 223.009 123.727C221.548 124.368 220.264 125.353 219.268 126.599C220.66 125.89 222.225 125.594 223.78 125.746C227.675 126.25 231.54 126.967 235.357 127.893C234.572 126.502 233.461 125.323 232.12 124.458C230.779 123.592 229.247 123.065 227.657 122.922Z" fill="#455A64"/>
<path d="M219.637 126.355C216.651 126.52 214.042 128.818 213 131.619C211.959 134.42 212.316 137.597 213.44 140.365C214.564 143.132 216.41 145.546 218.362 147.809C219.339 144.425 220.325 141.041 220.757 137.575C221.189 134.108 220.859 129.641 219.637 126.355Z" fill="#455A64"/>
<g opacity="0.3">
<path d="M204.296 132.412C201.13 136.443 200.073 141.812 200.431 146.941C202.314 140.117 206.233 134.03 211.665 129.491C213.733 127.776 216.373 126.415 218.934 126.415C213.666 125.96 207.552 128.254 204.296 132.412Z" fill="black"/>
<path d="M211.65 124.317C209.883 124.449 208.266 125.343 206.807 126.344C204.574 127.878 202.476 129.814 201.502 132.36C203.48 130.031 206.001 128.226 208.843 127.104C211.685 125.982 214.759 125.577 217.794 125.926C215.869 124.956 213.793 124.159 211.65 124.317Z" fill="black"/>
<path d="M216.598 118.263C215.576 118.974 214.794 120.143 214.846 121.384C214.916 122.243 215.274 123.052 215.861 123.682C216.507 124.431 217.223 125.116 218.001 125.727C218.651 122.854 219.43 119.854 220.08 116.981C218.845 117.17 217.661 117.606 216.598 118.263Z" fill="black"/>
<path d="M222.592 117.989C221.175 118.839 220.034 120.081 219.306 121.565C218.633 123.069 218.355 124.949 219.201 126.355C221.625 122.729 224.241 119.235 227.037 115.887C225.491 116.443 224.003 117.147 222.592 117.989Z" fill="black"/>
<path d="M227.657 122.922C226.065 122.81 224.47 123.087 223.009 123.727C221.548 124.368 220.264 125.353 219.268 126.599C220.66 125.89 222.225 125.594 223.78 125.746C227.675 126.25 231.54 126.967 235.357 127.893C234.572 126.502 233.461 125.323 232.12 124.458C230.779 123.592 229.247 123.065 227.657 122.922Z" fill="black"/>
<path d="M219.637 126.355C216.651 126.52 214.042 128.818 213 131.619C211.959 134.42 212.316 137.597 213.44 140.365C214.564 143.132 216.41 145.546 218.362 147.809C219.339 144.425 220.325 141.041 220.757 137.575C221.189 134.108 220.859 129.641 219.637 126.355Z" fill="black"/>
</g>
<g opacity="0.2">
<path d="M255.199 139.658C253.841 136.744 250.352 134.841 247.148 135.101C247.494 135.272 247.794 135.522 248.026 135.83C248.258 136.138 248.414 136.496 248.483 136.875C248.609 137.633 248.677 138.4 248.686 139.169C248.976 142.85 251.345 145.989 253.616 148.896C255.214 150.938 256.823 152.991 258.733 154.747C258.504 149.513 258.173 143.967 255.199 139.658Z" fill="black"/>
<path d="M247.148 135.142C249.183 133.578 251.807 132.927 254.375 132.886C256.943 132.845 259.477 133.412 261.963 134.044C263.467 134.42 264.971 134.841 266.253 135.706C267.535 136.571 268.55 137.962 268.573 139.5C266.464 137.18 263.065 136.732 260.053 135.856C258.015 135.266 256.045 134.416 253.965 133.976C251.631 133.595 249.236 133.992 247.148 135.104" fill="black"/>
<path d="M247.498 134.728C246.607 133.792 247.1 131.604 247.874 130.574C248.649 129.543 249.886 128.96 251.104 128.528C252.706 127.957 254.367 127.57 256.056 127.374C255.84 128.436 255.291 129.401 254.488 130.13C253.688 130.848 252.813 131.479 251.879 132.01L247.491 134.725" fill="black"/>
<path d="M239.136 133.48C236.591 134.608 234.624 136.68 232.718 138.71C235.543 138.023 238.246 136.904 240.73 135.394C241.715 134.792 242.693 134.119 243.821 133.867C244.949 133.615 246.212 134.119 247.152 134.898C245.554 132.544 241.682 132.352 239.136 133.48Z" fill="black"/>
<path d="M237.937 150.133C239.362 146.862 238.76 142.895 240.569 139.823C241.956 137.469 244.513 136.063 247.059 135.078C247.649 136.849 247.367 138.838 246.619 140.541C245.87 142.245 244.682 143.734 243.43 145.117C241.697 147.031 239.813 148.802 237.933 150.573" fill="black"/>
</g>
<path d="M115.124 82.1372H78.9601C78.4615 82.1372 77.9833 82.3353 77.6307 82.6878C77.2781 83.0404 77.0801 83.5186 77.0801 84.0172V100.494C77.0801 100.992 77.2781 101.47 77.6307 101.823C77.9833 102.175 78.4615 102.374 78.9601 102.374H94.1317L97.354 106.51L100.042 102.374H115.128C115.626 102.374 116.104 102.175 116.457 101.823C116.809 101.47 117.008 100.992 117.008 100.494V84.021C117.008 83.7735 116.96 83.5283 116.865 83.2995C116.771 83.0707 116.632 82.8629 116.457 82.6878C116.282 82.5128 116.074 82.3741 115.845 82.2796C115.616 82.1851 115.371 82.1367 115.124 82.1372Z" fill="white"/>
<path d="M115.124 82.1372H115.304C115.481 82.1503 115.654 82.1896 115.819 82.2538C116.09 82.3565 116.334 82.5214 116.53 82.7351C116.805 83.0312 116.978 83.4083 117.022 83.8104C117.056 85.6039 117.049 88.2134 117.06 91.5184C117.06 93.1691 117.06 94.9964 117.06 96.9742C117.06 97.9631 117.06 98.9933 117.06 100.057C117.072 100.331 117.059 100.605 117.022 100.877C116.968 101.156 116.851 101.42 116.68 101.648C116.508 101.884 116.286 102.079 116.029 102.217C115.772 102.356 115.487 102.435 115.195 102.449H100.02L100.095 102.407L97.4102 106.543L97.3388 106.652L97.2598 106.551L94.0337 102.415L94.1089 102.453H79.5201C79.2569 102.453 79.0088 102.453 78.7305 102.453C78.3225 102.406 77.939 102.233 77.6332 101.959C77.3274 101.685 77.1143 101.323 77.0235 100.922C76.9779 100.663 76.9615 100.399 76.9746 100.136V99.3844C76.9746 97.3414 76.9746 95.3361 76.9746 93.3684V87.5366C76.9746 86.5841 76.9746 85.6441 76.9746 84.7166V84.021C76.9748 83.6586 77.075 83.3034 77.264 82.9942C77.4531 82.6851 77.7237 82.4341 78.0462 82.2688C78.2572 82.159 78.4866 82.0889 78.723 82.062C78.9599 82.0395 79.178 82.062 79.4036 82.062H83.3591H88.3599H97.3425L110.348 82.0921L113.883 82.1109L110.348 82.1297L97.3425 82.1598H88.3599H79.4111C79.1892 82.1598 78.9599 82.1598 78.7493 82.1598C78.5349 82.1826 78.3268 82.2465 78.1364 82.3478C77.8446 82.4986 77.5998 82.7267 77.4287 83.0072C77.2576 83.2877 77.1669 83.6097 77.1664 83.9383V87.4539C77.1664 89.3527 77.1664 91.2966 77.1664 93.2706V100.065C77.1539 100.316 77.169 100.569 77.2115 100.817C77.2667 101.056 77.3702 101.281 77.5157 101.478C77.6612 101.675 77.8456 101.841 78.0575 101.964C78.2692 102.088 78.505 102.167 78.7493 102.193C78.99 102.216 79.2607 102.193 79.5013 102.193H94.1653L94.1916 102.231L97.414 106.367H97.2636L99.952 102.231L99.9783 102.189H100.027H115.195C115.598 102.172 115.983 102.02 116.289 101.758C116.596 101.497 116.806 101.14 116.887 100.745C116.922 100.483 116.935 100.217 116.925 99.9521C116.925 98.888 116.925 97.8578 116.925 96.8689C116.925 94.8912 116.925 93.0638 116.925 91.4131C116.925 88.1119 116.951 85.4912 116.925 83.7089C116.887 83.3727 116.76 83.0527 116.556 82.7827C116.353 82.5127 116.08 82.3027 115.767 82.1748C115.555 82.1316 115.339 82.1189 115.124 82.1372Z" fill="#263238"/>
<path d="M87.4422 85.7393H83.8402C83.5744 85.7393 83.3589 85.9547 83.3589 86.2205V88.7924C83.3589 89.0582 83.5744 89.2737 83.8402 89.2737H87.4422C87.7081 89.2737 87.9235 89.0582 87.9235 88.7924V86.2205C87.9235 85.9547 87.7081 85.7393 87.4422 85.7393Z" fill="#18432D"/>
<path d="M83.4344 85.8332L85.1716 87.6869C85.2645 87.8128 85.3968 87.9041 85.5476 87.9463C85.6419 87.9607 85.7383 87.9502 85.8273 87.9159C85.9163 87.8816 85.9948 87.8247 86.0552 87.7508C86.371 87.4275 86.6718 87.0928 86.9801 86.7657C87.2884 86.4386 87.5667 86.1453 87.8562 85.8332C87.8624 85.8238 87.8651 85.8126 87.8639 85.8014C87.8628 85.7902 87.8578 85.7798 87.8499 85.7719C87.8419 85.7639 87.8315 85.7589 87.8203 85.7578C87.8091 85.7566 87.7979 85.7594 87.7885 85.7655L86.1304 87.5327C86.0543 87.6314 85.9658 87.7198 85.8672 87.7959C85.619 87.9539 85.4084 87.7959 85.243 87.6192C84.9272 87.2883 84.6151 86.9537 84.303 86.6191L83.5059 85.7655C83.4645 85.7242 83.3968 85.7881 83.4382 85.8332H83.4344Z" fill="white"/>
<path d="M83.4155 89.2512L84.8105 87.6645L85.006 87.4427C85.0474 87.3975 84.9797 87.3299 84.9421 87.375C84.4758 87.9051 84.0096 88.4315 83.5471 88.9617L83.3478 89.1835C83.3102 89.2287 83.3742 89.2963 83.4155 89.2512Z" fill="white"/>
<path d="M87.8521 89.1121L86.5474 87.6081L86.3594 87.39C86.318 87.3411 86.2541 87.39 86.2917 87.4539L87.5964 88.9579C87.6603 89.0331 87.7242 89.1046 87.7844 89.1798C87.8446 89.255 87.8934 89.1572 87.8521 89.1121Z" fill="white"/>
<path d="M91.2928 88.7097V87.5404L90.7175 88.5029H90.5145L89.9429 87.5629V88.7097H89.5181V86.7583H89.8941L90.616 87.9841L91.3341 86.7696H91.7101V88.721L91.2928 88.7097Z" fill="#263238"/>
<path d="M93.624 88.0818H92.496C92.5191 88.1752 92.5752 88.2572 92.654 88.3125C92.7327 88.3678 92.8289 88.3927 92.9246 88.3826C92.9937 88.3859 93.0628 88.3749 93.1275 88.3503C93.1922 88.3257 93.2511 88.2881 93.3006 88.2397L93.5337 88.4916C93.4541 88.5745 93.3573 88.6389 93.2501 88.6805C93.143 88.7221 93.028 88.7397 92.9133 88.7323C92.8053 88.7433 92.6962 88.7316 92.593 88.6979C92.4898 88.6642 92.3947 88.6093 92.314 88.5367C92.2332 88.4642 92.1686 88.3755 92.1242 88.2764C92.0797 88.1773 92.0565 88.0701 92.0561 87.9615C92.0527 87.8566 92.0713 87.7522 92.1107 87.6549C92.1501 87.5576 92.2094 87.4697 92.2849 87.3967C92.3603 87.3238 92.4502 87.2674 92.5487 87.2313C92.6472 87.1952 92.7522 87.18 92.8569 87.1869C92.9609 87.1847 93.0641 87.204 93.1602 87.2436C93.2563 87.2833 93.3431 87.3424 93.4152 87.4173C93.4873 87.4922 93.543 87.5813 93.579 87.6788C93.6149 87.7763 93.6302 87.8803 93.624 87.984C93.624 87.984 93.624 88.048 93.624 88.0818ZM92.496 87.8299H93.248C93.248 87.7302 93.2084 87.6345 93.1378 87.564C93.0673 87.4935 92.9717 87.4539 92.872 87.4539C92.7723 87.4539 92.6766 87.4935 92.6061 87.564C92.5356 87.6345 92.496 87.7302 92.496 87.8299Z" fill="#263238"/>
<path d="M93.7593 88.5706L93.9059 88.2585C94.0624 88.3535 94.2418 88.4041 94.4248 88.4052C94.6278 88.4052 94.703 88.3488 94.703 88.266C94.703 88.0216 93.7969 88.266 93.7969 87.672C93.7969 87.39 94.0526 87.1869 94.4887 87.1869C94.6895 87.1837 94.8881 87.2289 95.0678 87.3185L94.9211 87.6268C94.7891 87.553 94.6399 87.5154 94.4887 87.5178C94.2932 87.5178 94.2105 87.578 94.2105 87.6569C94.2105 87.9126 95.1166 87.6569 95.1166 88.2548C95.1166 88.533 94.8572 88.7323 94.4098 88.7323C94.1823 88.7379 93.9576 88.6821 93.7593 88.5706Z" fill="#263238"/>
<path d="M95.2407 88.5706L95.3836 88.2586C95.5416 88.3531 95.7221 88.4037 95.9062 88.4052C96.1055 88.4052 96.1807 88.3488 96.1807 88.2661C96.1807 88.0217 95.2746 88.2661 95.2746 87.672C95.2746 87.39 95.5302 87.187 95.9702 87.187C96.1698 87.1833 96.3673 87.2285 96.5454 87.3186L96.4026 87.6269C96.2704 87.5535 96.1213 87.5159 95.9702 87.5178C95.7746 87.5178 95.6919 87.578 95.6919 87.657C95.6919 87.9127 96.5981 87.657 96.5981 88.2548C96.5981 88.533 96.3386 88.7323 95.8874 88.7323C95.6613 88.7375 95.4379 88.6816 95.2407 88.5706Z" fill="#263238"/>
<path d="M98.1921 87.8524V88.7097H97.7823V88.5217C97.7328 88.5949 97.6643 88.6532 97.5841 88.6903C97.5039 88.7274 97.4152 88.7419 97.3273 88.7322C96.9739 88.7322 96.7671 88.5367 96.7671 88.2773C96.7671 88.0178 96.9513 87.8298 97.4101 87.8298H97.7597C97.7597 87.6418 97.6469 87.5328 97.4138 87.5328C97.2585 87.5317 97.1069 87.5805 96.9814 87.6719L96.8273 87.3674C97.02 87.244 97.2452 87.1812 97.474 87.1869C97.9252 87.1869 98.1921 87.4012 98.1921 87.8524ZM97.756 88.2284V88.0742H97.4589C97.2559 88.0742 97.1882 88.1494 97.1882 88.251C97.1882 88.3525 97.2822 88.4314 97.4364 88.4314C97.5041 88.4375 97.5719 88.4217 97.63 88.3866C97.6882 88.3514 97.7336 88.2987 97.7597 88.2359L97.756 88.2284Z" fill="#263238"/>
<path d="M100.148 87.2095V88.4578C100.158 88.5699 100.143 88.6829 100.104 88.7884C100.065 88.894 100.003 88.9894 99.9222 89.0677C99.8414 89.146 99.744 89.2052 99.6373 89.2408C99.5305 89.2765 99.4171 89.2877 99.3055 89.2738C99.0391 89.2869 98.7756 89.2144 98.5535 89.067L98.7264 88.7549C98.8811 88.8653 99.0665 88.9244 99.2566 88.9241C99.5649 88.9241 99.6965 88.785 99.6965 88.5142V88.4503C99.636 88.5142 99.5622 88.5641 99.4804 88.5966C99.3986 88.6291 99.3106 88.6433 99.2228 88.6383C99.0303 88.6383 98.8457 88.5619 98.7096 88.4258C98.5735 88.2897 98.4971 88.1051 98.4971 87.9126C98.4971 87.7202 98.5735 87.5356 98.7096 87.3995C98.8457 87.2634 99.0303 87.187 99.2228 87.187C99.3164 87.1818 99.41 87.1984 99.4962 87.2356C99.5823 87.2728 99.6586 87.3295 99.7191 87.4013V87.2095H100.148ZM99.7191 87.9126C99.7228 87.8331 99.7023 87.7542 99.6604 87.6865C99.6185 87.6188 99.5571 87.5653 99.4842 87.5331C99.4114 87.5009 99.3305 87.4916 99.2522 87.5062C99.1739 87.5208 99.1019 87.5588 99.0455 87.6151C98.9892 87.6714 98.9512 87.7435 98.9366 87.8218C98.922 87.9001 98.9314 87.9809 98.9636 88.0538C98.9958 88.1267 99.0492 88.1881 99.117 88.23C99.1847 88.2719 99.2635 88.2923 99.3431 88.2886C99.4428 88.2886 99.5384 88.249 99.6089 88.1785C99.6795 88.108 99.7191 88.0124 99.7191 87.9126Z" fill="#263238"/>
<path d="M102.012 88.0818H100.884C100.907 88.1752 100.964 88.2572 101.042 88.3125C101.121 88.3678 101.217 88.3927 101.313 88.3826C101.382 88.3861 101.451 88.3752 101.516 88.3506C101.581 88.326 101.64 88.2883 101.689 88.2397L101.922 88.4916C101.842 88.5745 101.746 88.6389 101.638 88.6805C101.531 88.7221 101.416 88.7397 101.302 88.7323C101.194 88.7427 101.085 88.7306 100.982 88.6967C100.88 88.6628 100.785 88.6078 100.705 88.5352C100.624 88.4627 100.56 88.3742 100.516 88.2754C100.472 88.1766 100.449 88.0697 100.448 87.9615C100.445 87.8569 100.463 87.7528 100.503 87.6559C100.542 87.5589 100.601 87.4711 100.676 87.3982C100.751 87.3253 100.84 87.2689 100.938 87.2325C101.036 87.1961 101.141 87.1806 101.245 87.1869C101.349 87.1827 101.452 87.1999 101.549 87.2375C101.645 87.2751 101.733 87.3322 101.806 87.4053C101.88 87.4784 101.937 87.5658 101.975 87.6622C102.013 87.7585 102.031 87.8617 102.027 87.9652C102.02 87.984 102.016 88.048 102.012 88.0818ZM100.884 87.8299H101.636C101.636 87.7302 101.597 87.6345 101.526 87.564C101.456 87.4935 101.36 87.4539 101.26 87.4539C101.161 87.4539 101.065 87.4935 100.994 87.564C100.924 87.6345 100.884 87.7302 100.884 87.8299Z" fill="#263238"/>
<path d="M102.163 88.5706L102.31 88.2585C102.468 88.3536 102.648 88.4043 102.832 88.4052C103.032 88.4052 103.107 88.3488 103.107 88.266C103.107 88.0216 102.201 88.266 102.201 87.672C102.201 87.39 102.456 87.1869 102.896 87.1869C103.096 87.1837 103.293 87.2289 103.472 87.3185L103.329 87.6268C103.196 87.5538 103.047 87.5162 102.896 87.5178C102.701 87.5178 102.614 87.578 102.614 87.6569C102.614 87.9126 103.52 87.6569 103.52 88.2548C103.52 88.533 103.265 88.7323 102.814 88.7323C102.586 88.7374 102.362 88.6816 102.163 88.5706Z" fill="#263238"/>
<path d="M104.487 87.7359C104.475 87.5226 104.527 87.3105 104.637 87.1272C104.746 86.9438 104.909 86.7977 105.102 86.7075C105.296 86.6174 105.512 86.5875 105.723 86.6216C105.934 86.6558 106.13 86.7525 106.286 86.8991C106.441 87.0458 106.549 87.2357 106.595 87.4443C106.641 87.6529 106.624 87.8706 106.545 88.0693C106.467 88.2679 106.33 88.4384 106.153 88.5586C105.977 88.6788 105.768 88.7433 105.554 88.7436C105.417 88.7513 105.28 88.7309 105.151 88.6837C105.022 88.6366 104.904 88.5636 104.804 88.4693C104.704 88.3751 104.624 88.2614 104.57 88.1353C104.515 88.0092 104.487 87.8733 104.487 87.7359ZM106.164 87.7359C106.161 87.615 106.123 87.4975 106.055 87.3982C105.986 87.2988 105.889 87.222 105.777 87.1775C105.664 87.1329 105.541 87.1226 105.423 87.1478C105.305 87.173 105.197 87.2326 105.112 87.3191C105.028 87.4057 104.971 87.5152 104.948 87.634C104.926 87.7529 104.939 87.8756 104.987 87.9869C105.034 88.0981 105.113 88.1929 105.214 88.2593C105.315 88.3257 105.434 88.3608 105.554 88.3601C105.636 88.3617 105.717 88.3465 105.793 88.3155C105.869 88.2846 105.937 88.2384 105.994 88.1799C106.051 88.1214 106.096 88.0518 106.125 87.9755C106.154 87.8991 106.167 87.8176 106.164 87.7359Z" fill="#263238"/>
<path d="M107.337 87.1267H106.712V86.7507H108.412V87.1267H107.788V88.7097H107.337V87.1267Z" fill="#263238"/>
<path d="M110.349 87.4652C110.349 87.9013 110.021 88.1721 109.499 88.1721H109.123V88.7097H108.664V86.7583H109.506C110.021 86.7583 110.349 87.029 110.349 87.4652ZM109.89 87.4652C109.89 87.2509 109.751 87.1268 109.476 87.1268H109.1V87.8036H109.476C109.751 87.8036 109.89 87.6795 109.89 87.4652Z" fill="#263238"/>
<path d="M83.0957 94.4175C83.0957 92.5751 84.1184 91.5298 85.4871 91.5298C86.8557 91.5298 87.8822 92.5751 87.8822 94.4175C87.8822 96.2599 86.867 97.3052 85.4871 97.3052C84.1071 97.3052 83.0957 96.2561 83.0957 94.4175ZM86.5812 94.4175C86.5812 93.1503 86.1338 92.6239 85.4871 92.6239C84.8403 92.6239 84.4042 93.1503 84.4042 94.4175C84.4042 95.6846 84.8516 96.211 85.4871 96.211C86.1225 96.211 86.585 95.6846 86.585 94.4175H86.5812Z" fill="#263238"/>
<path d="M93.1877 95.5906C93.1877 96.6434 92.2477 97.3051 90.8302 97.3051C89.4127 97.3051 88.484 96.6434 88.484 95.5906C88.4808 95.3125 88.5592 95.0396 88.7096 94.8057C88.86 94.5718 89.0757 94.3871 89.33 94.2746C89.1322 94.1604 88.9682 93.9959 88.8546 93.7978C88.741 93.5996 88.6819 93.375 88.6833 93.1466C88.6833 92.1652 89.5593 91.5486 90.8302 91.5486C92.1011 91.5486 92.9885 92.1652 92.9885 93.1466C92.9891 93.3757 92.9288 93.6009 92.8139 93.7991C92.6989 93.9973 92.5334 94.1614 92.3342 94.2746C92.5908 94.3848 92.8089 94.5687 92.9609 94.8029C93.1128 95.0372 93.1918 95.3114 93.1877 95.5906ZM91.883 95.5492C91.883 95.0567 91.4732 94.7521 90.8302 94.7521C90.1873 94.7521 89.7925 95.0567 89.7925 95.5492C89.7925 96.0418 90.191 96.3576 90.8302 96.3576C91.4694 96.3576 91.883 96.0455 91.883 95.5492ZM89.9692 93.1804C89.9692 93.6053 90.3038 93.8685 90.8302 93.8685C91.3566 93.8685 91.7063 93.6053 91.7063 93.1804C91.7063 92.7555 91.3679 92.4961 90.8302 92.4961C90.2925 92.4961 89.9692 92.7443 89.9692 93.1804Z" fill="#263238"/>
<path d="M98.4557 95.5906C98.4557 96.6434 97.5119 97.3051 96.0944 97.3051C94.6769 97.3051 93.7481 96.6434 93.7481 95.5906C93.7449 95.3125 93.8234 95.0396 93.9738 94.8057C94.1242 94.5718 94.3398 94.3871 94.5941 94.2746C94.3964 94.1604 94.2323 93.9959 94.1187 93.7978C94.0051 93.5996 93.946 93.375 93.9474 93.1466C93.9474 92.1652 94.8273 91.5486 96.0944 91.5486C97.3615 91.5486 98.2564 92.1652 98.2564 93.1466C98.2562 93.3755 98.1957 93.6004 98.0808 93.7985C97.9659 93.9965 97.8008 94.1608 97.6021 94.2746C97.8584 94.3852 98.0763 94.5692 98.2281 94.8034C98.38 95.0376 98.4592 95.3115 98.4557 95.5906ZM97.1472 95.5492C97.1472 95.0567 96.7411 94.7521 96.0944 94.7521C95.4477 94.7521 95.0566 95.0567 95.0566 95.5492C95.0566 96.0418 95.4552 96.3576 96.0944 96.3576C96.7336 96.3576 97.1472 96.0455 97.1472 95.5492ZM95.2333 93.1804C95.2333 93.6053 95.568 93.8685 96.0944 93.8685C96.6208 93.8685 96.9705 93.6053 96.9705 93.1804C96.9705 92.7555 96.6321 92.4961 96.0944 92.4961C95.5567 92.4961 95.2333 92.7443 95.2333 93.1804Z" fill="#263238"/>
<path d="M101.2 91.6274V97.211H99.9068V92.6652H98.7788V91.6274H101.2Z" fill="#263238"/>
<path d="M106.344 96.1582V97.211H102.125V96.3725L104.276 94.3384C104.772 93.8684 104.859 93.5864 104.859 93.3081C104.859 92.872 104.558 92.6163 103.968 92.6163C103.744 92.6072 103.521 92.6532 103.319 92.7502C103.117 92.8472 102.942 92.9923 102.81 93.1728L101.87 92.5674C102.125 92.2252 102.462 91.9513 102.849 91.7703C103.236 91.5893 103.661 91.5066 104.088 91.5297C105.329 91.5297 106.16 92.1689 106.16 93.1803C106.16 93.7255 106.009 94.2181 105.227 94.9437L103.941 96.1582H106.344Z" fill="#263238"/>
<path d="M111.002 95.504C111.002 96.444 110.277 97.305 108.69 97.305C107.936 97.319 107.195 97.1111 106.558 96.7072L107.062 95.7183C107.527 96.0507 108.085 96.2271 108.656 96.2222C109.303 96.2222 109.701 95.959 109.701 95.504C109.701 95.049 109.389 94.8159 108.656 94.8159H108.066V93.9624L109.216 92.6652H106.84V91.6274H110.747V92.4659L109.487 93.8985C110.491 94.0602 111.002 94.6806 111.002 95.504Z" fill="#263238"/>
</svg>
