<svg width="22" height="22" viewBox="0 0 22 22" fill="none" xmlns="http://www.w3.org/2000/svg">
<path d="M10.9999 1.83331C8.59825 1.83331 6.64575 3.78581 6.64575 6.18748C6.64575 8.54331 8.48825 10.45 10.8899 10.5325C10.9633 10.5233 11.0366 10.5233 11.0916 10.5325C11.1099 10.5325 11.1191 10.5325 11.1374 10.5325C11.1466 10.5325 11.1466 10.5325 11.1558 10.5325C13.5024 10.45 15.3449 8.54331 15.3541 6.18748C15.3541 3.78581 13.4016 1.83331 10.9999 1.83331Z" fill="#18432D"/>
<path d="M15.6566 12.9708C13.0991 11.2658 8.9283 11.2658 6.35246 12.9708C5.1883 13.75 4.54663 14.8042 4.54663 15.9317C4.54663 17.0592 5.1883 18.1042 6.3433 18.8742C7.62663 19.7358 9.3133 20.1667 11 20.1667C12.6866 20.1667 14.3733 19.7358 15.6566 18.8742C16.8116 18.095 17.4533 17.05 17.4533 15.9133C17.4441 14.7858 16.8116 13.7408 15.6566 12.9708Z" fill="#18432D"/>
</svg>
