<svg width="17" height="18" viewBox="0 0 17 18" fill="none" xmlns="http://www.w3.org/2000/svg">
<path d="M8.50008 15.9936C12.4121 15.9936 15.5834 12.8223 15.5834 8.91024C15.5834 4.99822 12.4121 1.8269 8.50008 1.8269C4.58806 1.8269 1.41675 4.99822 1.41675 8.91024C1.41675 12.8223 4.58806 15.9936 8.50008 15.9936Z" stroke="#A7A9B7" stroke-width="1.5" stroke-linecap="round" stroke-linejoin="round"/>
<path d="M5.66647 2.53528H6.3748C4.99355 6.67194 4.99355 11.1486 6.3748 15.2853H5.66647" stroke="#A7A9B7" stroke-width="1.5" stroke-linecap="round" stroke-linejoin="round"/>
<path d="M10.625 2.53528C12.0062 6.67194 12.0062 11.1486 10.625 15.2853" stroke="#A7A9B7" stroke-width="1.5" stroke-linecap="round" stroke-linejoin="round"/>
<path d="M2.125 11.7436V11.0353C6.26167 12.4165 10.7383 12.4165 14.875 11.0353V11.7436" stroke="#A7A9B7" stroke-width="1.5" stroke-linecap="round" stroke-linejoin="round"/>
<path d="M2.125 6.78533C6.26167 5.40408 10.7383 5.40408 14.875 6.78533" stroke="#A7A9B7" stroke-width="1.5" stroke-linecap="round" stroke-linejoin="round"/>
</svg>
