<svg width="17" height="18" viewBox="0 0 17 18" fill="none" xmlns="http://www.w3.org/2000/svg">
<path d="M14.0579 4.16808C14.0579 3.60309 13.6 3.14689 13.0371 3.14689C12.4742 3.14689 12.0159 3.60309 12.0159 4.16808C12.0159 4.73099 12.4742 5.18719 13.0371 5.18719C13.6 5.18719 14.0579 4.73099 14.0579 4.16808Z" fill="url(#paint0_linear_142_40411)"/>
<path d="M15.418 12.1394C15.3802 12.9682 15.2415 13.4185 15.1265 13.7176C14.9719 14.1142 14.7875 14.3977 14.4884 14.6951C14.1926 14.9925 13.9091 15.1765 13.5125 15.3294C13.2134 15.4462 12.7614 15.5853 11.9326 15.6248C11.0366 15.6642 10.7711 15.6726 8.49894 15.6726C6.22887 15.6726 5.96126 15.6642 5.06525 15.6248C4.23646 15.5853 3.78656 15.4462 3.48745 15.3294C3.08881 15.1765 2.80737 14.9925 2.50995 14.6951C2.21043 14.3977 2.02603 14.1142 1.87354 13.7176C1.75842 13.4185 1.61772 12.9682 1.58199 12.1394C1.53832 11.2434 1.53032 10.9737 1.53032 8.70613C1.53032 6.43395 1.53832 6.16634 1.58199 5.27032C1.61772 4.44154 1.75842 3.99164 1.87354 3.69C2.02603 3.29388 2.21043 3.012 2.50995 2.71459C2.80737 2.41762 3.08881 2.23318 3.48745 2.07862C3.78656 1.96142 4.23646 1.82446 5.06525 1.78499C5.96126 1.74548 6.22887 1.7354 8.49894 1.7354C10.7711 1.7354 11.0366 1.74548 11.9326 1.78499C12.7614 1.82446 13.2134 1.96142 13.5125 2.07862C13.9091 2.23318 14.1926 2.41762 14.4884 2.71459C14.7875 3.012 14.9719 3.29388 15.1265 3.69C15.2415 3.99164 15.3802 4.44154 15.418 5.27032C15.4596 6.16634 15.4696 6.43395 15.4696 8.70613C15.4696 10.9737 15.4596 11.2434 15.418 12.1394ZM16.9483 5.2006C16.9067 4.29491 16.7639 3.67614 16.5518 3.13721C16.3359 2.57808 16.0464 2.10423 15.5726 1.63039C15.1008 1.15866 14.627 0.869215 14.0679 0.650785C13.5268 0.440739 12.9101 0.296223 12.004 0.256746C11.0979 0.213047 10.8085 0.205074 8.49894 0.205074C6.19148 0.205074 5.89996 0.213047 4.99385 0.256746C4.08983 0.296223 3.47358 0.440739 2.93002 0.650785C2.373 0.869215 1.89916 1.15866 1.42742 1.63039C0.953579 2.10423 0.664138 2.57808 0.446119 3.13721C0.236071 3.67614 0.0932565 4.29491 0.0495583 5.2006C0.0100818 6.1067 0 6.39655 0 8.70613C0 11.0136 0.0100818 11.303 0.0495583 12.2091C0.0932565 13.1131 0.236071 13.7315 0.446119 14.2729C0.664138 14.83 0.953579 15.3059 1.42742 15.7777C1.89916 16.2494 2.373 16.5409 2.93002 16.759C3.47358 16.969 4.08983 17.1118 4.99385 17.1534C5.89996 17.195 6.19148 17.2051 8.49894 17.2051C10.8085 17.2051 11.0979 17.195 12.004 17.1534C12.9101 17.1118 13.5268 16.969 14.0679 16.759C14.627 16.5409 15.1008 16.2494 15.5726 15.7777C16.0464 15.3059 16.3359 14.83 16.5518 14.2729C16.7639 13.7315 16.9067 13.1131 16.9483 12.2091C16.9899 11.303 17 11.0136 17 8.70613C17 6.39655 16.9899 6.1067 16.9483 5.2006Z" fill="url(#paint1_linear_142_40411)"/>
<path d="M8.49904 11.537C6.93511 11.537 5.66606 10.2701 5.66606 8.70612C5.66606 7.13967 6.93511 5.87106 8.49904 5.87106C10.0634 5.87106 11.3341 7.13967 11.3341 8.70612C11.3341 10.2701 10.0634 11.537 8.49904 11.537ZM8.49904 4.33863C6.08824 4.33863 4.13574 6.29532 4.13574 8.70612C4.13574 11.1149 6.08824 13.0695 8.49904 13.0695C10.9099 13.0695 12.8645 11.1149 12.8645 8.70612C12.8645 6.29532 10.9099 4.33863 8.49904 4.33863Z" fill="url(#paint2_linear_142_40411)"/>
<defs>
<linearGradient id="paint0_linear_142_40411" x1="0.153411" y1="17.0293" x2="15.5842" y2="1.59865" gradientUnits="userSpaceOnUse">
<stop stop-color="#FFD521"/>
<stop offset="0.05" stop-color="#FFD521"/>
<stop offset="0.501119" stop-color="#F50000"/>
<stop offset="0.95" stop-color="#B900B4"/>
<stop offset="0.950079" stop-color="#B900B4"/>
<stop offset="1" stop-color="#B900B4"/>
</linearGradient>
<linearGradient id="paint1_linear_142_40411" x1="0.153338" y1="17.0505" x2="15.5967" y2="1.60708" gradientUnits="userSpaceOnUse">
<stop stop-color="#FFD521"/>
<stop offset="0.05" stop-color="#FFD521"/>
<stop offset="0.501119" stop-color="#F50000"/>
<stop offset="0.95" stop-color="#B900B4"/>
<stop offset="0.950079" stop-color="#B900B4"/>
<stop offset="1" stop-color="#B900B4"/>
</linearGradient>
<linearGradient id="paint2_linear_142_40411" x1="0.15744" y1="17.0509" x2="15.5971" y2="1.61122" gradientUnits="userSpaceOnUse">
<stop stop-color="#FFD521"/>
<stop offset="0.05" stop-color="#FFD521"/>
<stop offset="0.501119" stop-color="#F50000"/>
<stop offset="0.95" stop-color="#B900B4"/>
<stop offset="0.950079" stop-color="#B900B4"/>
<stop offset="1" stop-color="#B900B4"/>
</linearGradient>
</defs>
</svg>
