<svg width="77" height="24" viewBox="0 0 77 24" fill="none" xmlns="http://www.w3.org/2000/svg">
<path d="M17.4399 14.62L19.9999 12.06L17.4399 9.5" stroke="#7D7F88" stroke-width="1.5" stroke-miterlimit="10" stroke-linecap="round" stroke-linejoin="round"/>
<path d="M9.76001 12.0601H19.93" stroke="#7D7F88" stroke-width="1.5" stroke-miterlimit="10" stroke-linecap="round" stroke-linejoin="round"/>
<path d="M11.76 20C7.34001 20 3.76001 17 3.76001 12C3.76001 7 7.34001 4 11.76 4" stroke="#7D7F88" stroke-width="1.5" stroke-miterlimit="10" stroke-linecap="round" stroke-linejoin="round"/>
<path d="M30.222 16.5V7.27H31.431V15.356H35.89V16.5H30.222ZM39.9879 16.63C39.0086 16.63 38.1939 16.305 37.5439 15.655C36.9026 14.9963 36.5819 14.1947 36.5819 13.25C36.5819 12.3053 36.9026 11.508 37.5439 10.858C38.1939 10.1993 39.0086 9.87 39.9879 9.87C40.9586 9.87 41.7646 10.1993 42.4059 10.858C43.0559 11.508 43.3809 12.3053 43.3809 13.25C43.3809 14.1947 43.0559 14.9963 42.4059 15.655C41.7646 16.305 40.9586 16.63 39.9879 16.63ZM38.3499 14.914C38.7746 15.3647 39.3206 15.59 39.9879 15.59C40.6553 15.59 41.1969 15.3647 41.6129 14.914C42.0289 14.4633 42.2369 13.9087 42.2369 13.25C42.2369 12.5913 42.0289 12.0367 41.6129 11.586C41.1969 11.1353 40.6553 10.91 39.9879 10.91C39.3206 10.91 38.7746 11.1353 38.3499 11.586C37.9339 12.0367 37.7259 12.5913 37.7259 13.25C37.7259 13.9087 37.9339 14.4633 38.3499 14.914ZM47.9757 19.347C47.1177 19.347 46.4027 19.1347 45.8307 18.71C45.2674 18.294 44.9337 17.7567 44.8297 17.098H45.9217C46.2077 17.9387 46.9011 18.359 48.0017 18.359C48.6171 18.359 49.1111 18.1597 49.4837 17.761C49.8651 17.371 50.0557 16.8207 50.0557 16.11V15.343C49.8217 15.6897 49.5054 15.967 49.1067 16.175C48.7081 16.383 48.2704 16.487 47.7937 16.487C46.8837 16.487 46.1254 16.1707 45.5187 15.538C44.9121 14.8967 44.6087 14.108 44.6087 13.172C44.6087 12.2447 44.9121 11.4647 45.5187 10.832C46.1341 10.1907 46.8924 9.87 47.7937 9.87C48.2704 9.87 48.7081 9.974 49.1067 10.182C49.5054 10.39 49.8217 10.663 50.0557 11.001V10H51.1737V16.097C51.1737 17.137 50.8704 17.9387 50.2637 18.502C49.6657 19.0653 48.9031 19.347 47.9757 19.347ZM46.3637 14.81C46.7711 15.2347 47.2997 15.447 47.9497 15.447C48.5997 15.447 49.1284 15.2347 49.5357 14.81C49.9431 14.3767 50.1467 13.8307 50.1467 13.172C50.1467 12.5133 49.9387 11.9717 49.5227 11.547C49.1154 11.1137 48.5911 10.897 47.9497 10.897C47.3084 10.897 46.7797 11.1137 46.3637 11.547C45.9564 11.9717 45.7527 12.5133 45.7527 13.172C45.7527 13.8307 45.9564 14.3767 46.3637 14.81ZM59.5606 16.63C58.5812 16.63 57.7666 16.305 57.1166 15.655C56.4752 14.9963 56.1546 14.1947 56.1546 13.25C56.1546 12.3053 56.4752 11.508 57.1166 10.858C57.7666 10.1993 58.5812 9.87 59.5606 9.87C60.5312 9.87 61.3372 10.1993 61.9786 10.858C62.6286 11.508 62.9536 12.3053 62.9536 13.25C62.9536 14.1947 62.6286 14.9963 61.9786 15.655C61.3372 16.305 60.5312 16.63 59.5606 16.63ZM57.9226 14.914C58.3472 15.3647 58.8932 15.59 59.5606 15.59C60.2279 15.59 60.7696 15.3647 61.1856 14.914C61.6016 14.4633 61.8096 13.9087 61.8096 13.25C61.8096 12.5913 61.6016 12.0367 61.1856 11.586C60.7696 11.1353 60.2279 10.91 59.5606 10.91C58.8932 10.91 58.3472 11.1353 57.9226 11.586C57.5066 12.0367 57.2986 12.5913 57.2986 13.25C57.2986 13.9087 57.5066 14.4633 57.9226 14.914ZM66.9894 16.63C66.2787 16.63 65.7024 16.3917 65.2604 15.915C64.8184 15.4297 64.5974 14.7883 64.5974 13.991V10H65.7154V13.822C65.7154 14.368 65.8454 14.8013 66.1054 15.122C66.374 15.4427 66.7337 15.603 67.1844 15.603C67.7044 15.603 68.1334 15.3907 68.4714 14.966C68.818 14.5327 68.9914 13.952 68.9914 13.224V10H70.1094V16.5H68.9914V15.499C68.5667 16.253 67.8994 16.63 66.9894 16.63ZM74.8687 16.565C74.2707 16.565 73.7897 16.396 73.4257 16.058C73.0617 15.72 72.8797 15.226 72.8797 14.576V11.027H71.5017V10H72.8797V8.193H73.9977V10H75.8697V11.027H73.9977V14.433C73.9977 14.8403 74.0843 15.1263 74.2577 15.291C74.431 15.4557 74.704 15.538 75.0767 15.538C75.406 15.538 75.6703 15.4947 75.8697 15.408V16.409C75.5577 16.513 75.224 16.565 74.8687 16.565Z" fill="#7D7F88"/>
</svg>
