<svg width="34" height="34" viewBox="0 0 34 34" fill="none" xmlns="http://www.w3.org/2000/svg">
<path d="M3.29175 11.0424V24.7789C3.29175 27.4612 5.19763 28.5624 7.51293 27.2354L10.8306 25.3436C11.5506 24.9342 12.7506 24.8918 13.4988 25.273L20.9106 28.9859C21.6588 29.353 22.8588 29.3248 23.5788 28.9154L29.6918 25.4142C30.4682 24.9624 31.1176 23.8612 31.1176 22.9577V9.22124C31.1176 6.53889 29.2118 5.43771 26.8965 6.76477L23.5788 8.65654C22.8588 9.06595 21.6588 9.1083 20.9106 8.72712L13.4988 5.0283C12.7506 4.66124 11.5506 4.68948 10.8306 5.09889L4.71763 8.60007C3.92704 9.05183 3.29175 10.153 3.29175 11.0424Z" stroke="#151B33" stroke-width="1.5" stroke-linecap="round" stroke-linejoin="round"/>
<path d="M12.1436 5.70581V24.0588" stroke="#151B33" stroke-width="1.5" stroke-linecap="round" stroke-linejoin="round"/>
<path d="M22.2659 9.40479V28.2942" stroke="#151B33" stroke-width="1.5" stroke-linecap="round" stroke-linejoin="round"/>
</svg>
