
<svg width="24" height="24" viewBox="0 0 24 24" fill="none" xmlns="http://www.w3.org/2000/svg">
<path d="M7.62998 3.56999C7.80936 3.47215 7.99998 3.62267 7.99998 3.82701V17.3828C7.99998 17.6061 7.84756 17.7949 7.65018 17.8991C7.64341 17.9027 7.63667 17.9063 7.62998 17.91L5.27998 19.25C3.63998 20.19 2.28998 19.41 2.28998 17.51V7.77999C2.28998 7.14999 2.73998 6.36999 3.29998 6.04999L7.62998 3.56999Z" fill="#151B33"/>
<path d="M14.7219 6.10229C14.8922 6.18664 15 6.36028 15 6.55035V19.7035C15 20.072 14.615 20.3139 14.283 20.1539L10.033 18.1063C9.85998 18.023 9.75 17.8479 9.75 17.6559V4.44559C9.75 4.07473 10.1396 3.83294 10.4719 3.99753L14.7219 6.10229Z" fill="#151B33"/>
<path d="M22 6.49V16.22C22 16.85 21.55 17.63 20.99 17.95L17.4986 19.951C17.1653 20.142 16.75 19.9013 16.75 19.5172V6.33032C16.75 6.15081 16.8462 5.98507 17.0021 5.89608L19.01 4.75C20.65 3.81 22 4.59 22 6.49Z" fill="#151B33"/>
</svg>
