<svg width="151" height="150" viewBox="0 0 151 150" fill="none" xmlns="http://www.w3.org/2000/svg">
<rect x="2" y="1.5" width="147" height="147" rx="73.5" fill="white" stroke="#E3E3E7" stroke-width="3"/>
<path d="M45.3472 71.7065V86.3957C45.3472 101.085 51.2359 106.974 65.9251 106.974H83.5587C98.2479 106.974 104.137 101.085 104.137 86.3957V71.7065" stroke="#151B33" stroke-width="4" stroke-linecap="round" stroke-linejoin="round"/>
<path d="M74.7584 74.2583C80.7453 74.2583 85.1619 69.3837 84.573 63.3968L82.4138 41.543H67.1357L64.9438 63.3968C64.3549 69.3837 68.7715 74.2583 74.7584 74.2583Z" stroke="#151B33" stroke-width="4" stroke-linecap="round" stroke-linejoin="round"/>
<path d="M95.4021 74.2583C102.011 74.2583 106.852 68.893 106.198 62.3172L105.282 53.3205C104.104 44.8145 100.833 41.543 92.2614 41.543H82.2832L84.5733 64.4764C85.1294 69.8745 90.004 74.2583 95.4021 74.2583Z" stroke="#151B33" stroke-width="4" stroke-linecap="round" stroke-linejoin="round"/>
<path d="M53.951 74.2583C59.349 74.2583 64.2236 69.8745 64.7471 64.4764L65.4668 57.2463L67.0372 41.543H57.059C48.4875 41.543 45.216 44.8145 44.0382 53.3205L43.1549 62.3172C42.5006 68.893 47.3425 74.2583 53.951 74.2583Z" stroke="#151B33" stroke-width="4" stroke-linecap="round" stroke-linejoin="round"/>
<path d="M74.7584 90.616C69.295 90.616 66.5796 93.3313 66.5796 98.7948V106.974H82.9373V98.7948C82.9373 93.3313 80.2219 90.616 74.7584 90.616Z" stroke="#151B33" stroke-width="4" stroke-linecap="round" stroke-linejoin="round"/>
</svg>
