
<svg width="22" height="22" viewBox="0 0 22 22" fill="none" xmlns="http://www.w3.org/2000/svg">
<path d="M20.1666 6.9208C20.1666 7.5258 19.6716 8.0208 19.0666 8.0208H2.93325C2.32825 8.0208 1.83325 7.5258 1.83325 6.9208V6.91164C1.83325 4.81247 3.52909 3.11664 5.62825 3.11664H16.3624C18.4616 3.11664 20.1666 4.82164 20.1666 6.9208Z" fill="#18432D"/>
<path d="M1.83325 10.4958V15.0883C1.83325 17.1875 3.52909 18.8833 5.62825 18.8833H16.3624C18.4616 18.8833 20.1666 17.1783 20.1666 15.0791V10.4958C20.1666 9.89081 19.6716 9.39581 19.0666 9.39581H2.93325C2.32825 9.39581 1.83325 9.89081 1.83325 10.4958ZM7.33325 15.8125H5.49992C5.12409 15.8125 4.81242 15.5008 4.81242 15.125C4.81242 14.7491 5.12409 14.4375 5.49992 14.4375H7.33325C7.70909 14.4375 8.02075 14.7491 8.02075 15.125C8.02075 15.5008 7.70909 15.8125 7.33325 15.8125ZM13.2916 15.8125H9.62492C9.24909 15.8125 8.93742 15.5008 8.93742 15.125C8.93742 14.7491 9.24909 14.4375 9.62492 14.4375H13.2916C13.6674 14.4375 13.9791 14.7491 13.9791 15.125C13.9791 15.5008 13.6674 15.8125 13.2916 15.8125Z" fill="#18432D"/>
</svg>
