<svg width="12" height="12" viewBox="0 0 12 12" fill="none" xmlns="http://www.w3.org/2000/svg">
<mask id="mask0_227_3184" style="mask-type:alpha" maskUnits="userSpaceOnUse" x="0" y="0" width="12" height="12">
<path d="M6.86544 1.75501L7.74544 3.51501C7.86544 3.76001 8.18544 3.99501 8.45544 4.04001L10.0504 4.30501C11.0704 4.47501 11.3104 5.21501 10.5754 5.94501L9.33544 7.18501C9.12544 7.39501 9.01044 7.80001 9.07544 8.09001L9.43044 9.62501C9.71044 10.84 9.06544 11.31 7.99044 10.675L6.49544 9.79001C6.22544 9.63001 5.78044 9.63001 5.50544 9.79001L4.01044 10.675C2.94044 11.31 2.29044 10.835 2.57044 9.62501L2.92544 8.09001C2.99044 7.80001 2.87544 7.39501 2.66544 7.18501L1.42544 5.94501C0.695443 5.21501 0.930443 4.47501 1.95044 4.30501L3.54544 4.04001C3.81044 3.99501 4.13044 3.76001 4.25044 3.51501L5.13044 1.75501C5.61044 0.800007 6.39044 0.800007 6.86544 1.75501Z" fill="white" stroke="#292D32" stroke-width="1.5" stroke-linecap="round" stroke-linejoin="round"/>
</mask>
<g mask="url(#mask0_227_3184)">
<rect width="12" height="12" fill="#FFBF75"/>
</g>
</svg>
