<svg width="22" height="22" viewBox="0 0 22 22" fill="none" xmlns="http://www.w3.org/2000/svg">
<path d="M10.0833 19.0208C5.15165 19.0208 1.14581 15.015 1.14581 10.0833C1.14581 5.15168 5.15165 1.14584 10.0833 1.14584C15.015 1.14584 19.0208 5.15168 19.0208 10.0833C19.0208 15.015 15.015 19.0208 10.0833 19.0208ZM10.0833 2.52084C5.91248 2.52084 2.52081 5.91251 2.52081 10.0833C2.52081 14.2542 5.91248 17.6458 10.0833 17.6458C14.2541 17.6458 17.6458 14.2542 17.6458 10.0833C17.6458 5.91251 14.2541 2.52084 10.0833 2.52084Z" fill="#1A1E25"/>
<path d="M18.48 20.8908C18.4067 20.8908 18.3333 20.8817 18.2692 20.8725C17.8383 20.8175 17.0592 20.5242 16.6192 19.2133C16.39 18.5258 16.4725 17.8383 16.8483 17.3158C17.2242 16.7933 17.8567 16.5 18.5808 16.5C19.5158 16.5 20.2492 16.8575 20.5792 17.49C20.9092 18.1225 20.8175 18.9292 20.295 19.7083C19.6442 20.6892 18.9383 20.8908 18.48 20.8908ZM17.93 18.7825C18.0858 19.2592 18.3058 19.4975 18.4525 19.5158C18.5992 19.5342 18.8742 19.36 19.1583 18.9475C19.4242 18.5533 19.4425 18.2692 19.3783 18.1408C19.3142 18.0125 19.0575 17.875 18.5808 17.875C18.2967 17.875 18.0858 17.9667 17.9667 18.1225C17.8567 18.2783 17.8383 18.5167 17.93 18.7825Z" fill="#1A1E25"/>
</svg>
