
<svg width="34" height="34" viewBox="0 0 34 34" fill="none" xmlns="http://www.w3.org/2000/svg">
<rect width="34" height="34" rx="17" fill="white"/>
<path d="M21.8825 14.3695C22.2575 14.3695 22.5575 14.0607 22.5575 13.6746V10.0846C22.5575 9.69853 22.2575 9.38971 21.8825 9.38971C21.5075 9.38971 21.2075 9.69853 21.2075 10.0846V13.6746C21.2075 14.0529 21.515 14.3695 21.8825 14.3695Z" fill="#1A1E25"/>
<path d="M17 20.1599C16.625 20.1599 16.325 20.4687 16.325 20.8548V24.4448C16.325 24.8309 16.625 25.1397 17 25.1397C17.375 25.1397 17.675 24.8309 17.675 24.4448V20.8548C17.675 20.4765 17.375 20.1599 17 20.1599Z" fill="#1A1E25"/>
<path d="M12.1176 14.3695C12.4926 14.3695 12.7926 14.0607 12.7926 13.6746V10.0846C12.7926 9.69853 12.4926 9.38971 12.1176 9.38971C11.7426 9.38971 11.4426 9.69853 11.4426 10.0846V13.6746C11.4426 14.0529 11.7426 14.3695 12.1176 14.3695Z" fill="#1A1E25"/>
<path d="M13.5125 15.8518H10.7225C10.3475 15.8518 10.0475 16.1607 10.0475 16.5467C10.0475 16.9327 10.3475 17.2415 10.7225 17.2415H11.4425V24.4448C11.4425 24.8309 11.7425 25.1397 12.1175 25.1397C12.4925 25.1397 12.7925 24.8309 12.7925 24.4448V17.2415H13.5125C13.8875 17.2415 14.1875 16.9327 14.1875 16.5467C14.1875 16.1607 13.88 15.8518 13.5125 15.8518Z" fill="#1A1E25"/>
<path d="M23.2775 15.8518H20.4875C20.1125 15.8518 19.8125 16.1607 19.8125 16.5467C19.8125 16.9327 20.1125 17.2415 20.4875 17.2415H21.2075V24.4448C21.2075 24.8309 21.5075 25.1397 21.8825 25.1397C22.2575 25.1397 22.5575 24.8309 22.5575 24.4448V17.2415H23.2775C23.6525 17.2415 23.9525 16.9327 23.9525 16.5467C23.9525 16.1607 23.6525 15.8518 23.2775 15.8518Z" fill="#1A1E25"/>
<path d="M18.395 17.2879H17.675V10.0846C17.675 9.69853 17.375 9.38971 17 9.38971C16.625 9.38971 16.325 9.69853 16.325 10.0846V17.2879H15.605C15.23 17.2879 14.93 17.5967 14.93 17.9827C14.93 18.3688 15.23 18.6776 15.605 18.6776H18.395C18.77 18.6776 19.07 18.3688 19.07 17.9827C19.07 17.5967 18.77 17.2879 18.395 17.2879Z" fill="#1A1E25"/>
</svg>
