<svg width="20" height="18" viewBox="0 0 20 18" fill="none" xmlns="http://www.w3.org/2000/svg">
<path d="M17.4249 6.24657C15.7658 6.24657 15.0874 5.07324 15.9124 3.63407C16.3891 2.7999 16.1049 1.73657 15.2708 1.2599L13.6849 0.352404C12.9608 -0.078429 12.0258 0.178238 11.5949 0.902404L11.4941 1.07657C10.6691 2.51574 9.31242 2.51574 8.47825 1.07657L8.37742 0.902404C7.96492 0.178238 7.02992 -0.078429 6.30575 0.352404L4.71992 1.2599C3.88575 1.73657 3.60158 2.80907 4.07825 3.64324C4.91242 5.07324 4.23408 6.24657 2.57492 6.24657C1.62159 6.24657 0.833252 7.02574 0.833252 7.98824V9.60157C0.833252 10.5549 1.61242 11.3432 2.57492 11.3432C4.23408 11.3432 4.91242 12.5166 4.07825 13.9557C3.60158 14.7899 3.88575 15.8532 4.71992 16.3299L6.30575 17.2374C7.02992 17.6682 7.96492 17.4116 8.39575 16.6874L8.49658 16.5132C9.32158 15.0741 10.6783 15.0741 11.5124 16.5132L11.6133 16.6874C12.0441 17.4116 12.9791 17.6682 13.7033 17.2374L15.2891 16.3299C16.1233 15.8532 16.4074 14.7807 15.9307 13.9557C15.0966 12.5166 15.7749 11.3432 17.4341 11.3432C18.3874 11.3432 19.1758 10.5641 19.1758 9.60157V7.98824C19.1666 7.0349 18.3874 6.24657 17.4249 6.24657ZM9.99992 11.7741C8.35908 11.7741 7.02075 10.4357 7.02075 8.7949C7.02075 7.15407 8.35908 5.81574 9.99992 5.81574C11.6408 5.81574 12.9791 7.15407 12.9791 8.7949C12.9791 10.4357 11.6408 11.7741 9.99992 11.7741Z" fill="#18432D"/>
</svg>
