<svg width="24" height="24" viewBox="0 0 24 24" fill="none" xmlns="http://www.w3.org/2000/svg">
<path d="M20.62 13.0701C20.24 13.0701 19.92 12.7801 19.87 12.4001C19.63 10.1401 18.41 8.0901 16.53 6.7901C16.19 6.5501 16.11 6.0901 16.34 5.7501C16.58 5.4101 17.05 5.3301 17.38 5.5601C19.62 7.1101 21.06 9.5501 21.35 12.2401C21.39 12.6501 21.1 13.0201 20.68 13.0701C20.67 13.0701 20.64 13.0701 20.62 13.0701Z" fill="#292D32"/>
<path d="M3.49003 13.12C3.46003 13.12 3.44003 13.12 3.41003 13.12C3.00003 13.07 2.70003 12.7 2.74003 12.29C3.01003 9.60001 4.44003 7.17001 6.65003 5.60001C6.99003 5.36001 7.46003 5.44001 7.70003 5.78001C7.94003 6.12001 7.86003 6.59001 7.52003 6.83001C5.66003 8.14001 4.46003 10.19 4.23003 12.45C4.20003 12.83 3.87003 13.12 3.49003 13.12Z" fill="#292D32"/>
<path d="M12.0603 22.61C10.5803 22.61 9.17033 22.27 7.85033 21.61C7.48033 21.42 7.33033 20.97 7.52033 20.6C7.71033 20.23 8.16033 20.08 8.53033 20.27C10.6903 21.36 13.2903 21.38 15.4703 20.33C15.8403 20.15 16.2903 20.31 16.4703 20.68C16.6503 21.05 16.4903 21.5 16.1203 21.68C14.8403 22.3 13.4803 22.61 12.0603 22.61Z" fill="#292D32"/>
<path d="M12.06 8.43988C10.11 8.43988 8.53003 6.85988 8.53003 4.90988C8.53003 2.95988 10.11 1.37988 12.06 1.37988C14.01 1.37988 15.59 2.95988 15.59 4.90988C15.59 6.85988 14 8.43988 12.06 8.43988ZM12.06 2.88988C10.94 2.88988 10.03 3.79988 10.03 4.91988C10.03 6.03988 10.94 6.94988 12.06 6.94988C13.18 6.94988 14.09 6.03988 14.09 4.91988C14.09 3.79988 13.17 2.88988 12.06 2.88988Z" fill="#292D32"/>
<path d="M4.82956 20.6701C2.87956 20.6701 1.29956 19.0901 1.29956 17.1401C1.29956 15.2001 2.87956 13.6101 4.82956 13.6101C6.77956 13.6101 8.35956 15.1901 8.35956 17.1401C8.35956 19.0801 6.77956 20.6701 4.82956 20.6701ZM4.82956 15.1101C3.70956 15.1101 2.79956 16.0201 2.79956 17.1401C2.79956 18.2601 3.70956 19.1701 4.82956 19.1701C5.94956 19.1701 6.85956 18.2601 6.85956 17.1401C6.85956 16.0201 5.94956 15.1101 4.82956 15.1101Z" fill="#292D32"/>
<path d="M19.17 20.6701C17.22 20.6701 15.64 19.0901 15.64 17.1401C15.64 15.2001 17.22 13.6101 19.17 13.6101C21.12 13.6101 22.7 15.1901 22.7 17.1401C22.69 19.0801 21.11 20.6701 19.17 20.6701ZM19.17 15.1101C18.05 15.1101 17.14 16.0201 17.14 17.1401C17.14 18.2601 18.05 19.1701 19.17 19.1701C20.29 19.1701 21.2 18.2601 21.2 17.1401C21.19 16.0201 20.29 15.1101 19.17 15.1101Z" fill="#292D32"/>
</svg>
