
<svg width="80" height="80" viewBox="0 0 80 80" fill="none" xmlns="http://www.w3.org/2000/svg">
<path d="M10.3472 36.7065V51.3957C10.3472 66.0849 16.2359 71.9737 30.9251 71.9737H48.5587C63.2479 71.9737 69.1367 66.0849 69.1367 51.3957V36.7065" stroke="#151B33" stroke-width="4" stroke-linecap="round" stroke-linejoin="round"/>
<path d="M39.7584 39.2583C45.7453 39.2583 50.1619 34.3837 49.573 28.3968L47.4138 6.54297H32.1357L29.9438 28.3968C29.3549 34.3837 33.7715 39.2583 39.7584 39.2583Z" stroke="#151B33" stroke-width="4" stroke-linecap="round" stroke-linejoin="round"/>
<path d="M60.4021 39.2583C67.0106 39.2583 71.8524 33.893 71.1981 27.3172L70.2821 18.3205C69.1043 9.81451 65.8328 6.54297 57.2614 6.54297H47.2832L49.5733 29.4764C50.1294 34.8745 55.004 39.2583 60.4021 39.2583Z" stroke="#151B33" stroke-width="4" stroke-linecap="round" stroke-linejoin="round"/>
<path d="M18.951 39.2583C24.349 39.2583 29.2236 34.8745 29.7471 29.4764L30.4668 22.2463L32.0372 6.54297H22.059C13.4875 6.54297 10.216 9.81451 9.03825 18.3205L8.15493 27.3172C7.50063 33.893 12.3425 39.2583 18.951 39.2583Z" stroke="#151B33" stroke-width="4" stroke-linecap="round" stroke-linejoin="round"/>
<path d="M39.7584 55.616C34.295 55.616 31.5796 58.3313 31.5796 63.7948V71.9736H47.9373V63.7948C47.9373 58.3313 45.2219 55.616 39.7584 55.616Z" stroke="#151B33" stroke-width="4" stroke-linecap="round" stroke-linejoin="round"/>
</svg>
