<svg width="17" height="17" viewBox="0 0 17 17" fill="none" xmlns="http://www.w3.org/2000/svg">
<path d="M12.1666 6.13664C13.2598 6.92089 14.599 7.38233 16.0455 7.38233V4.58904C15.7717 4.58909 15.4987 4.56045 15.2309 4.5035V6.70222C13.7846 6.70222 12.4455 6.24079 11.352 5.4566V11.1569C11.352 14.0085 9.04858 16.32 6.20731 16.32C5.14716 16.32 4.1618 15.9983 3.34326 15.4467C4.27749 16.4053 5.58035 17 7.02172 17C9.86317 17 12.1667 14.6885 12.1667 11.8368V6.13664H12.1666ZM13.1715 3.31856C12.6128 2.70601 12.246 1.91442 12.1666 1.03927V0.679993H11.3947C11.589 1.7923 12.2517 2.74259 13.1715 3.31856ZM5.14037 13.2585C4.82822 12.8477 4.65954 12.3453 4.66029 11.8286C4.66029 10.5244 5.71387 9.46698 7.01371 9.46698C7.25595 9.46692 7.49674 9.50415 7.7276 9.57766V6.72194C7.45781 6.68483 7.18553 6.66908 6.91336 6.67486V8.89761C6.68233 8.8241 6.44142 8.78676 6.19912 8.78699C4.89928 8.78699 3.84576 9.84435 3.84576 11.1487C3.84576 12.071 4.37238 12.8695 5.14037 13.2585Z" fill="#FF004F"/>
<path d="M11.352 5.45654C12.4455 6.24073 13.7846 6.70216 15.2309 6.70216V4.50345C14.4236 4.33087 13.7089 3.90747 13.1715 3.31856C12.2517 2.74254 11.589 1.79224 11.3947 0.679993H9.367V11.8367C9.36241 13.1373 8.31063 14.1905 7.01359 14.1905C6.24926 14.1905 5.57023 13.8249 5.14019 13.2585C4.37226 12.8695 3.84564 12.0709 3.84564 11.1488C3.84564 9.84452 4.89917 8.78705 6.199 8.78705C6.44804 8.78705 6.68808 8.82597 6.91324 8.89767V6.67492C4.12188 6.73279 1.87695 9.02171 1.87695 11.8368C1.87695 13.242 2.43599 14.5159 3.34332 15.4467C4.16186 15.9983 5.14722 16.32 6.20737 16.32C9.04869 16.32 11.3521 14.0084 11.3521 11.1569V5.45654H11.352Z" fill="black"/>
<path d="M15.231 4.50344V3.90893C14.503 3.91003 13.7892 3.70543 13.1716 3.31849C13.7183 3.91925 14.4383 4.33349 15.231 4.50344ZM11.3947 0.679988C11.3762 0.573687 11.362 0.466686 11.3521 0.359277V0H8.55243V11.1568C8.54795 12.4573 7.49624 13.5104 6.19908 13.5104C5.81825 13.5104 5.45869 13.4197 5.14027 13.2585C5.57031 13.8249 6.24934 14.1904 7.01366 14.1904C8.31059 14.1904 9.36254 13.1374 9.36708 11.8368V0.679988H11.3947ZM6.91343 6.67491V6.04201C6.6795 6.00992 6.44364 5.99382 6.2075 5.99393C3.36594 5.99387 1.0625 8.30548 1.0625 11.1568C1.0625 12.9445 1.96779 14.5199 3.34345 15.4466C2.43613 14.5159 1.87709 13.2419 1.87709 11.8367C1.87709 9.0217 4.12196 6.73279 6.91343 6.67491Z" fill="#00F2EA"/>
</svg>
